<?xml version="1.0" encoding="utf-8"?>
<!-- Generator: Adobe Illustrator 25.0.1, SVG Export Plug-In . SVG Version: 6.00 Build 0)  -->
<svg version="1.1" id="Layer_1" xmlns="http://www.w3.org/2000/svg" xmlns:xlink="http://www.w3.org/1999/xlink" x="0px" y="0px"
	 viewBox="0 0 107 62" style="enable-background:new 0 0 107 62;" xml:space="preserve">
<style type="text/css">
	.st0{fill:#363737;}
</style>
<path class="st0" d="M33.7,2.7c-1.1,1.2-2.2,2.9-2.4,3.7c-0.2,1.1-0.5,1.4-0.9,1.1c-0.6-0.6-4.1-0.7-5-0.2c-0.9,0.6-1.8,2.6-1.8,4.1
	c0,1.3-0.2,1.5-2.7,3.5c-1.2,0.9-1.3,1.3-1.2,4.1c0.2,4.4-0.1,5-2.5,4.9c-2.5-0.1-4.7,1.3-5.7,3.6c-0.5,1.2-1.5,2-3.4,2.9
	C3.8,32.4,0.2,37,0.2,40.6c0,2.4,2.6,6.5,5.4,8.5c3.9,2.9,8.7,4.3,14.9,4.3c2.8,0,6.2-0.3,7.7-0.6c5.2-1.2,10.5-4.6,12.3-8.1
	c1-1.9,1-6.1-0.1-8.1c-0.7-1.4-0.7-1.6,0.7-2.8c0.8-0.7,2-1.4,2.8-1.6c3-0.7,4.4-1.5,5.2-3.2c1.1-2.3,0.6-4.2-1.5-5.2l-1.8-0.9h3.1
	c3.7,0,4.9-0.5,6-2.7c1.2-2.2,1-3.9-0.5-5.3L53,13.6l1.3-1.3c3-3.3,3-6.3,0.1-9.4c-1.5-1.6-2-1.8-4.4-1.8c-2,0-3.2,0.4-4.7,1.4
	c-1.8,1.2-2.1,1.2-2.5,0.5c-1-1.9-2.2-2.5-4.5-2.5C36,0.5,35.5,0.7,33.7,2.7z M40.4,3.4c0.7,0.7,1.3,1.5,1.3,1.9
	c0,1,1.9,0.6,3.7-0.8c3.5-2.6,6.7-2.3,8.3,0.8c1.2,2.3,1,3.7-1.1,5.5c-2.3,2.1-2.5,4.1-0.5,5c0.9,0.4,1.3,1.1,1.3,1.9
	c0,2.2-1.3,3-5.3,3c-2.6,0-3.9,0.2-4.5,0.9c-1.2,1.2-1.1,1.8,0.8,2.8c0.9,0.5,2.1,1.3,2.7,1.7c1,0.8,1,0.9-0.1,2.2
	c-0.6,0.8-1.9,1.5-2.8,1.8c-1,0.2-2.6,1-3.7,1.7l-2,1.3L36.9,32c-5.1-3.1-10.1,1-5.5,4.5C34.7,39,33.6,41,29,41
	c-3.3,0-5.5,0.9-5.8,2.3c-0.2,1,1.2,1.3,1.8,0.4c0.2-0.3,1.8-0.5,3.6-0.5c6.5,0,8.9-3.5,4.9-7.3c-2-1.8-2.2-2.6-1.3-3.2
	c0.7-0.4,3.5,2.1,4.5,4.2c1.1,2.1,1,6.2-0.3,8.1c-2.5,3.7-7.4,6.3-13.5,7l-3.1,0.4v-2.7c0-3,2-9.4,4.4-14.2
	c4.3-8.6,12.8-18.8,20.3-24.4c2-1.5,3.5-2.8,3.4-3c-0.4-0.4-5.9,3.9-9.8,7.6C30.4,23,21.6,35.9,17.4,46c-1.4,3.4-2.3,5.1-2.9,5.1
	c-1.5,0-6.3-2.7-7.9-4.6c-2.2-2.6-3-5.5-2.2-8.2c0.7-2.3,3.4-5.3,5.9-6.7c1.4-0.7,1.6-0.7,1.6,0c0,0.4-0.3,0.8-0.6,0.8
	c-1,0-4.2,2.7-5.3,4.5c-1.5,2.6-1.2,2.9,0.9,0.7c2.2-2.2,5.3-3.8,6.6-3.4c0.7,0.3,0.3,0.7-1.8,1.7c-3.1,1.6-4.9,3.1-5.9,5.1
	c-1,1.9-0.3,1.9,1.6-0.1c1.5-1.5,5-3.3,7.9-4c1.5-0.4,1.5-0.3,1.7,2.3c0.1,0.8,0.4,1.3,0.9,1.3c0.6,0,0.9-0.7,1-2.3
	c0.2-2.2,0-2.5-2.6-4.9c-2.2-2.1-2.8-2.9-2.8-4.3c0-2.2,1.9-3.8,4.2-3.6c2.2,0.3,2.8,0,3.8-1.9c0.6-1.2,0.8-2.4,0.5-4.4
	c-0.3-2.7-0.3-2.8,1.5-3.8c1.4-0.9,1.8-1.4,2.1-3.3c0.2-1.2,0.6-2.6,0.9-3c1-1.1,2.5-1,3.2,0.3c0.9,1.6,2.6,1.4,3-0.4
	c0.7-2.9,2.4-5.5,4.1-6.2C38.9,1.9,38.9,1.9,40.4,3.4z"/>
<path class="st0" d="M53.6,28c-2.6,2.2-1,7.1,2.2,7.1c1.9,0,3.6-1.9,3.6-4C59.4,27.7,56.1,26,53.6,28z M57.4,28.5
	c1.1,1.1,1.1,3.9-0.1,5.1c-1.8,2-3.9,0.6-3.9-2.5C53.5,28,55.6,26.7,57.4,28.5z"/>
<path class="st0" d="M62.9,29c-0.5,1.2-1.3,3-1.8,4l-1,1.9l1.3,0.1c1,0.1,1.2-0.1,0.6-0.4c-1.2-0.8-0.3-2.3,1.4-2.1
	c1.2,0.1,1.5,0.4,1.4,1.3c0,1,0.3,1.2,1.3,1.2c1,0,1.2-0.2,0.7-0.7c-0.3-0.4-1.2-2.2-1.9-4.1l-1.3-3.5L62.9,29z M64.2,31.2
	c0,0.4-0.4,0.7-0.8,0.7c-0.9,0-1-0.5-0.5-1.9c0.3-0.7,0.4-0.7,0.8-0.2C64,30.3,64.2,30.9,64.2,31.2z"/>
<path class="st0" d="M68.4,27.9c0.4,0.5,0.6,1.9,0.4,3.9c-0.2,2.7-0.1,3.1,0.6,3.1c0.6-0.1,0.8-0.5,0.6-1.9L70,31.1l1.8,2
	c2.5,2.8,3.6,2.5,1.3-0.3l-1.9-2.3l1.6-1.5c0.9-0.9,1.9-1.3,2.3-1.2c0.4,0.2,1.3,1.8,2,3.5c0.6,1.8,1.3,3.3,1.5,3.3
	c0.2,0,1-1.4,1.6-3.1c0.7-1.7,1.5-3.4,1.8-3.7c0.4-0.5,0.2-0.6-0.6-0.6c-0.7,0-1,0.3-0.9,1c0.2,0.5-0.2,1.9-0.6,3l-0.9,2.1l-0.8-1.9
	c-0.4-1-0.8-2.4-0.9-3c-0.1-1.1-0.3-1.2-2.6-1.2c-1.9,0-2.5,0.2-2.2,0.7c0.1,0.4-0.4,1.3-1.1,2L70,31v-1.6c0-0.9,0.3-1.8,0.7-1.9
	c0.3-0.2-0.2-0.3-1.2-0.3C68,27.1,67.8,27.2,68.4,27.9z"/>
<path class="st0" d="M83.3,27.5c0.4,0.2,0.6,1.4,0.6,3.6c0,2.2-0.2,3.5-0.6,3.6c-0.4,0.2,0.2,0.3,1.2,0.3c1.4,0.1,1.7-0.1,1.2-0.6
	c-0.9-0.9-0.9-6.7,0.1-7c0.3-0.2-0.2-0.3-1.2-0.3C83.4,27.2,82.9,27.3,83.3,27.5z"/>
<path class="st0" d="M87.9,31.1c0,3.7,0.1,3.9,1.2,3.9c0.9,0,1.1-0.2,0.7-0.5c-0.8-0.8-0.7-5.9,0.1-6.7c0.5-0.5,0.4-0.6-0.6-0.6
	C88,27.1,87.9,27.2,87.9,31.1z"/>
<path class="st0" d="M94.5,27.8c0.8,0.8,0.9,5.9,0.1,6.7C94,34.9,94.6,35,96.8,35c2.7-0.1,2.9-0.2,3-1.4l0.2-1.3l-0.9,1.2
	c-0.5,0.7-1.3,1.2-1.9,1.2c-1,0-1.1-0.3-0.9-3.7c0.2-3.7,0.1-3.7-1.1-3.7C94.1,27.1,94,27.3,94.5,27.8z"/>
<path class="st0" d="M101.4,30.7c0.2,2.4,0,3.7-0.4,3.9c-0.4,0.2,0.7,0.4,2.5,0.3c2.7-0.1,3.1-0.2,3.4-1.1c0.2-1,0.2-1.1-0.9-0.1
	c-1.5,1.4-3,1-3.2-0.9c-0.2-1.1,0.1-1.4,0.9-1.4c0.5,0,1.2,0.3,1.3,0.6c0.2,0.4,0.3,0,0.3-0.9c0.1-1.2-0.1-1.4-0.6-1
	c-1.1,1.1-2,0.7-2-1c0-1.3,0.2-1.6,1.2-1.6c0.7,0,1.5,0.3,1.9,0.6c0.5,0.5,0.6,0.4,0.6-0.3c0-0.7-0.5-0.9-2.5-0.9h-2.6L101.4,30.7z"
	/>
<path class="st0" d="M91.8,34.1c-0.9,1-0.9,1,0.1,1c0.5,0,1.1-0.5,1.3-1.1C93.4,32.7,93,32.8,91.8,34.1z"/>
<path class="st0" d="M53.4,37.6c-3,3.4,0.6,8.9,3.9,6l1.3-1.1l-1.4,0.9c-1.3,0.8-1.5,0.8-2.5-0.2c-1.2-1.2-1.5-4.3-0.5-5.3
	c1.1-1.1,2.9-0.7,3.5,0.5l0.6,1.2v-1.4c0.1-1.2-0.2-1.3-2-1.4C54.9,36.7,54,37,53.4,37.6z"/>
<path class="st0" d="M59.8,37.4c0.9,0.9,0.9,6.1,0,6.5c-0.4,0.2-0.1,0.3,0.7,0.3c1.2,0.1,1.3-0.1,1.1-1.6c-0.2-1.1,0-1.8,0.5-2.1
	c0.6-0.4,0.6-0.5,0-0.5c-0.5,0-0.6-0.5-0.5-1.6c0.2-1.4,0.1-1.6-1.1-1.6C59.5,36.7,59.3,36.9,59.8,37.4z"/>
<path class="st0" d="M64.4,40.5c0,3.6,0.1,3.7,1.3,3.7c0.7,0,1-0.2,0.7-0.3c-0.4-0.2-0.7-1.4-0.7-3.4c0-2,0.3-3.2,0.7-3.4
	c0.3-0.2,0.1-0.3-0.7-0.3C64.5,36.7,64.4,36.8,64.4,40.5z"/>
<path class="st0" d="M70,39.2c-0.6,1.3-1.1,2.6-1.1,2.9c0,0.3-0.4,0.9-0.9,1.3c-0.7,0.8-0.7,0.9,0.7,0.9c1,0,1.3-0.2,0.8-0.4
	c-0.5-0.4-0.5-1,0.4-2.8c0.9-2,1.1-2.2,1.4-1.3c0.2,0.6,0.6,1.6,0.9,2.2c0.3,0.6,0.4,1.4,0.2,1.7c-0.3,0.4,0.2,0.6,1.1,0.6
	c0.8,0,1.2-0.2,0.9-0.4c-0.3-0.2-1.2-1.9-1.8-3.7c-0.6-1.8-1.3-3.3-1.4-3.3C71.2,36.7,70.6,37.9,70,39.2z"/>
<path class="st0" d="M75.8,37.4c0.9,0.9,0.9,6.1,0,6.5c-0.4,0.2,0.1,0.3,0.9,0.3c0.9,0,1.3-0.1,1-0.3c-0.4-0.2-0.7-1.3-0.6-3
	l0.1-2.8l1.1,3.2l1.1,3.2l1.5-3.2l1.4-3.2l0.1,2.8c0.1,1.7-0.2,2.8-0.6,3c-0.4,0.2-0.1,0.3,0.6,0.3c1.3,0.1,1.3-0.1,1.3-3.7
	c0-4.7-1.1-5.1-2.8-0.9l-1.1,2.8l-0.6-1.5c-0.3-0.8-0.8-2-1.1-2.8c-0.3-0.9-0.9-1.3-1.7-1.3C75.4,36.7,75.3,36.9,75.8,37.4z"/>
<path class="st0" d="M85.9,37.1c0.4,0.2,0.6,1.4,0.6,3.4c0,2-0.3,3.2-0.6,3.4c-0.4,0.2,0.5,0.2,1.9,0.2c3.2-0.1,4.3-1.3,2.8-2.9
	c-0.6-0.7-0.7-1.2-0.4-1.4c0.9-0.5,0.7-2.2-0.3-2.6c-0.5-0.2-1.7-0.3-2.8-0.3C86.1,36.8,85.6,36.9,85.9,37.1z M89.5,38.6
	c0,0.6-0.4,1.1-0.9,1.2c-0.7,0.2-1-0.2-1-1.2c0-1.1,0.2-1.4,1-1.2C89.1,37.5,89.5,38,89.5,38.6z M89.7,41.2c0.8,1,0.2,2.5-1.1,2.5
	c-0.7,0-1-0.4-1-1.6C87.6,40.4,88.6,39.9,89.7,41.2z"/>
<path class="st0" d="M92.9,37.1c0.4,0.2,0.6,1.4,0.6,3.4c0,2-0.3,3.2-0.6,3.4c-0.4,0.2,0.8,0.3,2.7,0.3c3.1,0.1,3.3,0,3.3-1.2
	c-0.1-1.1-0.1-1.1-0.6-0.3c-0.3,0.6-1.2,1-2.1,1c-1.4,0-1.6-0.2-1.6-1.6c0-1.7,0.9-2.1,2-1c0.5,0.5,0.6,0.3,0.6-0.9
	s-0.2-1.4-0.6-0.9c-1.1,1.1-2,0.7-2-0.7c0-1,0.3-1.3,1.2-1.3c0.7,0,1.5,0.3,1.9,0.6c0.5,0.5,0.6,0.4,0.6-0.3c0-0.7-0.5-0.9-3-0.9
	C93.6,36.8,92.5,36.9,92.9,37.1z"/>
<path class="st0" d="M100.2,40.5c0,3.6,0.1,3.7,1.3,3.7c0.7,0,1-0.2,0.7-0.3c-0.8-0.3-1-2.8-0.2-2.8c0.3,0,1,0.7,1.7,1.6
	c0.6,0.9,1.5,1.6,2,1.6c0.6,0,0.4-0.4-0.6-1.7c-1.2-1.4-1.3-1.8-0.6-2.1c1-0.6,1.1-2.1,0.2-3c-0.4-0.4-1.5-0.6-2.5-0.6h-1.9V40.5z
	 M104,38.1c0.4,1-0.6,2.4-1.7,2.4c-0.5,0-0.7-0.6-0.7-1.6c0-1.2,0.2-1.6,1.1-1.6C103.2,37.3,103.8,37.6,104,38.1z"/>
<path class="st0" d="M0.9,47.1c1.2,4,6.6,7.8,13.2,9.3c7.4,1.8,20.2-0.3,19.6-3.1c-0.2-1.1-1.2-1-5.2,0.1c-1.7,0.5-5,0.9-7.7,0.9
	c-8.2,0-14.5-2.3-18.3-6.7l-2.1-2.5L0.9,47.1z"/>
<path class="st0" d="M80.1,48.6c-0.4,0.6-1,1.8-1.4,2.4c-0.4,0.7-0.6,1.2-0.4,1.2c0.5,0,3.1-4.3,2.8-4.6
	C80.9,47.4,80.5,47.9,80.1,48.6z"/>
<path class="st0" d="M0.9,50.9c2.7,6.4,10.1,10,20.3,10c7.3-0.1,14.1-2.5,12.2-4.4c-0.3-0.3-2.1,0-4.2,0.6c-2.4,0.6-5.4,1-8.5,1
	c-8.3,0-14.4-2.3-18.4-6.8l-2.2-2.6L0.9,50.9z"/>
<path class="st0" d="M53.4,55.2c-0.4,0.5-1,1.4-1.1,1.9c-0.5,1.2,0.6,3.5,1.9,3.8c1.2,0.4,3.1-0.2,3.1-0.9c0-0.3-0.3-0.3-0.8,0.1
	c-1.8,1.5-3.9-1.3-3-3.9c0.6-1.7,2.4-1.9,3.2-0.5c0.5,0.9,0.5,0.9,0.6,0.1C57.2,54.2,54.6,53.8,53.4,55.2z"/>
<path class="st0" d="M59.2,55.3c-1.2,1.3-1.1,4,0.1,5.1c2.1,1.9,4.9,0.4,4.9-2.7C64.2,54.8,61,53.3,59.2,55.3z M62.5,55.5
	c1,1,0.8,4.6-0.2,5.1c-1.4,0.5-2.6-0.6-2.8-2.5C59.2,55.5,60.9,54,62.5,55.5z"/>
<path class="st0" d="M66.1,55.5c0.6,0.7,1.4,2.1,1.8,3.3c0.4,1.2,0.9,1.9,1.1,1.6c0.7-0.7-2-6-3.1-6C65.2,54.3,65.2,54.5,66.1,55.5z
	"/>
<path class="st0" d="M71,54.7c0,0.3-0.1,1.8-0.1,3.5c-0.1,2.5,0.1,3.1,0.7,3.1s0.8-0.7,0.8-3.5c0-2.4-0.2-3.5-0.6-3.5
	C71.4,54.3,71.1,54.5,71,54.7z"/>
<path class="st0" d="M74.7,55.3c0.6,0.5,1.4,1.9,1.8,3.1c0.6,2,1.5,3,1.5,1.8c0-0.3,0.2-1,0.3-1.5c0.2-0.7,0.2-0.8-0.2-0.2
	c-0.4,0.5-0.7,0.1-1.4-1.8c-0.7-1.9-1.2-2.5-2.1-2.5l-1.1,0.1L74.7,55.3z"/>
<path class="st0" d="M79.2,55.7c-0.9,1.8-0.8,2.3,0.1,1.1c0.6-0.9,0.7-0.8,0.8,0.4c0.1,0.7-0.2,2-0.4,2.7c-0.4,1.1-0.4,1.3,0.5,1.3
	c0.9,0,0.9-0.3,0.7-2.7c-0.2-1.7,0-2.9,0.4-3.5c0.5-0.6,0.5-0.8-0.4-0.8C80.3,54.3,79.5,54.9,79.2,55.7z"/>
<path class="st0" d="M83.1,57.8c0,2.8,0.2,3.5,0.9,3.5c0.6,0,0.7-0.4,0.6-1.7c-0.2-1.5-0.1-1.6,0.9-1.3c0.9,0.2,1.1,0.1,1.1-0.9
	c0-0.6-0.2-0.9-0.3-0.5c-0.5,1.2-1.8,0.7-1.8-0.6c0-1.5,1.4-1.8,2.6-0.7c0.6,0.6,0.7,0.5,0.5-0.1c-0.2-0.5-1.1-0.9-2.3-1l-2.1-0.2
	V57.8z"/>
<path class="st0" d="M89.5,57.8c0,3,0.1,3.5,1,3.5c0.8,0,0.9-0.2,0.3-0.7c-0.4-0.5-0.4-1.1-0.1-1.7c0.4-0.7,0.6-0.6,1.7,0.8
	c0.6,0.9,1.4,1.7,1.7,1.7c0.3,0,0-0.7-0.6-1.7c-0.9-1.1-1-1.8-0.6-1.9c1-0.3,0.8-2.6-0.2-3c-0.5-0.2-1.3-0.3-2-0.3
	C89.6,54.3,89.5,54.6,89.5,57.8z M92.3,56.4c0.2,0.9-0.1,1.2-0.9,1.2c-0.7,0-1-0.3-0.9-1.2c0.2-1.5,0.2-1.5,1-1.3
	C91.8,55.1,92.2,55.7,92.3,56.4z"/>
<path class="st0" d="M96.5,55.1c-1.2,1.3-1.5,2.8-0.7,4.4c0.9,1.8,3.1,2.2,4.2,0.9c0.7-0.9,0.6-0.9-0.2-0.3c-1.3,1.1-3,0.3-3.4-1.5
	c-0.6-2.9,2.1-5.1,3.4-2.8c0.5,0.9,0.5,0.9,0.6,0.1C100.4,54.3,97.8,53.8,96.5,55.1z"/>
<path class="st0" d="M101.9,55.1c0.2,0.5,0.3,2,0.1,3.5l-0.4,2.7l2.5-0.2c2-0.1,2.5-0.4,2.6-1.2c0.2-1,0.2-1-0.5-0.1
	c-1,1.3-2.8,0.9-3-0.7c-0.2-1.1,0-1.2,0.9-1c0.7,0.2,1.1,0,1.1-0.4s-0.4-0.6-1.1-0.4c-0.9,0.2-1.1,0-1.1-1.1c0-1.5,1.4-1.9,2.6-0.7
	c0.5,0.5,0.6,0.4,0.6-0.3c0-0.7-0.5-0.9-2.4-0.9C101.8,54.3,101.5,54.5,101.9,55.1z"/>
<path class="st0" d="M74.8,58.8c0,0.7-0.3,1.5-0.6,1.9c-0.5,0.5-0.4,0.6,0.4,0.6c0.9,0,1-0.3,0.9-1.9C75.2,57.3,74.8,56.9,74.8,58.8
	z"/>
<path class="st0" d="M65.6,60.2c-0.2,0.8,0,1.1,0.8,1.1c1,0,1-0.1,0.4-1c-0.4-0.5-0.7-1-0.8-1.1C65.9,59.2,65.8,59.6,65.6,60.2z"/>
<path class="st0" d="M86.6,60.6c-1.3,0.6-1.3,0.7-0.2,0.7c0.6,0,1.3-0.3,1.5-0.6C88.5,59.8,88,59.8,86.6,60.6z"/>
</svg>
