<svg width="107" height="62" viewBox="0 0 107 62" fill="none" xmlns="http://www.w3.org/2000/svg">
<path d="M33.6601 2.6535C32.5401 3.82683 31.4201 5.5335 31.2601 6.38683C31.0468 7.50684 30.7801 7.82684 30.4068 7.4535C29.7668 6.8135 26.3534 6.70683 25.4468 7.2935C24.5401 7.88017 23.6334 9.8535 23.6334 11.3468C23.6334 12.6802 23.4734 12.8935 20.9668 14.8135C19.7934 15.7202 19.6868 16.1468 19.7934 18.8668C19.9534 23.2935 19.7401 23.8268 17.2868 23.7202C14.7801 23.6668 12.5934 25.0535 11.6334 27.3468C11.1001 28.5735 10.1401 29.3735 8.22009 30.2802C3.79342 32.4135 0.166748 37.0002 0.166748 40.6269C0.166748 43.0269 2.72675 47.0802 5.55342 49.1069C9.50009 52.0402 14.2468 53.3735 20.4334 53.3735C23.2068 53.3735 26.6734 53.1069 28.1668 52.7335C33.3934 51.5602 38.6734 48.0935 40.4868 44.6269C41.4468 42.7602 41.4468 38.4935 40.4334 36.5735C39.6868 35.1335 39.7401 34.9735 41.1268 33.7469C41.9268 33.0535 43.1535 32.3069 43.9001 32.1469C46.9401 31.4535 48.3268 30.6002 49.0735 28.9469C50.1935 26.6535 49.6601 24.7868 47.5268 23.7735L45.7668 22.8668H48.8601C52.5401 22.8668 53.7135 22.3335 54.8335 20.2002C56.0068 17.9602 55.8468 16.3068 54.3001 14.8668L52.9668 13.5868L54.2468 12.2535C57.2335 9.00017 57.2335 5.96017 54.3001 2.8135C52.8068 1.2135 52.2735 1.00016 49.9268 1.00016C47.9535 1.00016 46.7268 1.3735 45.2335 2.38683C43.4734 3.56017 43.1535 3.6135 42.7268 2.92017C41.7134 1.0535 40.5401 0.466831 38.1934 0.466831C36.0068 0.466831 35.4734 0.733498 33.6601 2.6535ZM40.4334 3.40017C41.1801 4.0935 41.7668 4.94683 41.7668 5.26683C41.7668 6.22683 43.6334 5.8535 45.5001 4.46684C48.9668 1.90683 52.1668 2.1735 53.7668 5.26683C54.9935 7.6135 54.7268 8.94683 52.7001 10.8135C50.4068 12.9468 50.1935 14.9202 52.1668 15.8268C53.0735 16.2535 53.5001 16.8935 53.5001 17.7468C53.5001 19.9868 52.2201 20.7335 48.1668 20.7335C45.5535 20.7335 44.2734 20.9468 43.6868 21.5868C42.4601 22.7602 42.6201 23.3468 44.4868 24.3602C45.3935 24.8402 46.6201 25.6402 47.2068 26.0668C48.2201 26.8668 48.2201 26.9202 47.1535 28.2535C46.5668 29.0535 45.2868 29.8002 44.3268 30.0135C43.3668 30.1735 41.7134 30.9735 40.6468 31.7202L38.6734 33.0535L36.9134 31.9869C31.7934 28.8402 26.7801 33.0002 31.3668 36.5202C34.6734 39.0269 33.6068 41.0002 28.9668 41.0002C25.7134 41.0002 23.4734 41.9069 23.2068 43.2935C22.9934 44.2535 24.3801 44.5735 24.9668 43.6669C25.1268 43.4002 26.7801 43.1335 28.5934 43.1335C35.1001 43.1335 37.4468 39.6669 33.5001 35.8802C31.5268 34.0669 31.2601 33.3202 32.2201 32.6802C32.9134 32.2535 35.6868 34.8135 36.7534 36.8402C37.8201 38.9202 37.7134 43.0802 36.4868 44.8935C34.0334 48.6269 29.1268 51.1869 22.9934 51.9335L19.9001 52.3069V49.6402C19.9001 46.6535 21.8734 40.2535 24.2734 35.4002C28.5401 26.8135 37.0734 16.5735 44.5401 11.0268C46.5668 9.5335 48.0601 8.20017 47.9001 8.04017C47.5268 7.66684 41.9801 11.9335 38.0868 15.6135C30.3534 22.9735 21.5534 35.8802 17.4468 46.0135C16.0601 49.3735 15.1001 51.1335 14.5134 51.1335C12.9668 51.1335 8.22009 48.4135 6.62009 46.5469C4.38008 43.9869 3.58008 41.0535 4.38008 38.3335C5.07342 35.9869 7.79342 33.0002 10.3001 31.6669C11.7401 30.9202 11.9001 30.9202 11.9001 31.6669C11.9001 32.0935 11.6334 32.4669 11.2601 32.4669C10.2468 32.4669 7.10009 35.1335 5.98009 36.9469C4.43342 39.5069 4.75342 39.8269 6.83342 37.6935C9.07342 35.4535 12.1668 33.8535 13.3934 34.3335C14.0868 34.6002 13.6601 35.0269 11.6334 36.0402C8.48675 37.6402 6.72675 39.1335 5.71342 41.1069C4.70009 43.0269 5.44675 43.0269 7.31342 41.0535C8.80676 39.5069 12.2734 37.7469 15.2601 37.0535C16.7534 36.6802 16.7534 36.7335 16.9134 39.4002C16.9668 40.2002 17.2868 40.7335 17.7668 40.7335C18.3534 40.7335 18.6201 40.0402 18.7268 38.4402C18.8868 36.2002 18.7268 35.9335 16.1134 33.5335C13.8734 31.4535 13.3401 30.6535 13.3401 29.2669C13.3401 27.0268 15.2601 25.4268 17.5001 25.6935C19.6868 26.0135 20.3268 25.6935 21.2868 23.7735C21.9268 22.6002 22.0868 21.3735 21.8201 19.3468C21.5001 16.6268 21.5534 16.5735 23.3134 15.5068C24.7534 14.6535 25.1268 14.0668 25.3934 12.2535C25.5534 11.0268 25.9801 9.6935 26.3001 9.26684C27.2601 8.14684 28.8068 8.30684 29.5001 9.5335C30.3534 11.1335 32.0601 10.9202 32.4868 9.10684C33.2334 6.1735 34.8868 3.6135 36.5934 2.86683C38.8868 1.8535 38.9401 1.8535 40.4334 3.40017Z" fill="white"/>
<path d="M53.6068 28.0405C51.0468 30.2271 52.5935 35.1338 55.7935 35.1338C57.7135 35.1338 59.3668 33.2671 59.3668 31.1338C59.3668 27.7205 56.0601 25.9604 53.6068 28.0405ZM57.4468 28.5205C58.5668 29.5871 58.5135 32.4138 57.3935 33.6405C55.6335 35.6138 53.5001 34.2805 53.5001 31.1338C53.5001 28.0405 55.6335 26.6538 57.4468 28.5205Z" fill="white"/>
<path d="M62.8869 29.0005C62.4069 30.1738 61.6069 31.9871 61.0735 33.0005L60.1135 34.9205L61.4469 35.0271C62.4602 35.0805 62.6202 34.9738 62.0869 34.6538C60.8602 33.8538 61.8202 32.3605 63.4735 32.5738C64.6469 32.6805 64.9669 33.0005 64.9135 33.9071C64.9135 34.8671 65.1802 35.1338 66.1935 35.1338C67.2069 35.1338 67.3669 34.9738 66.9402 34.4405C66.6202 34.0671 65.7669 32.2538 65.0735 30.3338L63.7402 26.8671L62.8869 29.0005ZM64.1669 31.2405C64.1669 31.6138 63.7935 31.9338 63.3669 31.9338C62.5135 31.9338 62.3535 31.4538 62.8869 30.0671C63.1535 29.3738 63.3135 29.3205 63.6869 29.9071C63.9535 30.2805 64.1669 30.9205 64.1669 31.2405Z" fill="white"/>
<path d="M68.4335 27.9335C68.8601 28.4669 69.0201 29.8535 68.8601 31.8802C68.7001 34.5469 68.7535 35.0269 69.5001 34.9735C70.1401 34.9202 70.3001 34.4402 70.1401 33.0535L69.9801 31.1335L71.7401 33.1602C74.1935 35.9335 75.3135 35.6669 73.0201 32.8402L71.1001 30.4935L72.7001 29.0002C73.5535 28.1469 74.5668 27.6669 75.0468 27.8269C75.4735 27.9869 76.3268 29.5869 77.0201 31.3469C77.6601 33.1602 78.3535 34.6002 78.5668 34.6002C78.7801 34.6002 79.5268 33.2135 80.1668 31.5069C80.8601 29.8535 81.6601 28.1469 81.9268 27.7735C82.3001 27.2935 82.1401 27.1335 81.3401 27.1335C80.5935 27.1335 80.3268 27.4002 80.4868 28.0935C80.6468 28.5735 80.3268 29.9602 79.8468 31.1335L78.9401 33.2669L78.1401 31.4002C77.7135 30.3869 77.3401 29.0002 77.2868 28.3602C77.2335 27.2935 76.9668 27.1335 74.7268 27.1335C72.8601 27.1335 72.2735 27.2935 72.4868 27.8269C72.5935 28.2002 72.1135 29.1069 71.3668 29.8002L70.0335 31.0269V29.4269C70.0335 28.5202 70.3535 27.6135 70.7268 27.5069C71.0468 27.3469 70.5668 27.1869 69.5535 27.1869C68.0068 27.1335 67.8468 27.2402 68.4335 27.9335Z" fill="white"/>
<path d="M83.2602 27.5072C83.6869 27.6672 83.9002 28.9472 83.9002 31.1339C83.9002 33.3205 83.6869 34.6005 83.2602 34.7605C82.8869 34.9205 83.4202 35.0805 84.4335 35.0805C85.8202 35.1339 86.0869 34.9739 85.6069 34.4939C84.7535 33.6405 84.7535 27.8272 85.6602 27.5072C85.9802 27.3472 85.4469 27.2405 84.4335 27.2405C83.4202 27.2405 82.8869 27.3472 83.2602 27.5072Z" fill="white"/>
<path d="M87.9001 31.0803C87.9001 34.8136 87.9535 34.9736 89.1268 34.9736C90.0335 34.9736 90.1935 34.8136 89.8201 34.4403C89.0201 33.6403 89.0735 28.5736 89.8735 27.7736C90.3535 27.2936 90.2468 27.1336 89.2335 27.1336C87.9535 27.1336 87.9001 27.2403 87.9001 31.0803Z" fill="white"/>
<path d="M94.4602 27.7738C95.2602 28.5738 95.3136 33.6405 94.5136 34.4405C94.0336 34.9205 94.6202 35.0272 96.7536 34.9738C99.4202 34.8672 99.6336 34.7605 99.7936 33.5338L99.9536 32.2005L99.1002 33.3738C98.6202 34.0672 97.7669 34.6005 97.1802 34.6005C96.1669 34.6005 96.1136 34.3338 96.2736 30.8672C96.4336 27.1872 96.3802 27.1338 95.1536 27.1338C94.0869 27.1338 93.9802 27.2938 94.4602 27.7738Z" fill="white"/>
<path d="M101.394 30.6537C101.554 33.0537 101.394 34.3337 100.967 34.6003C100.594 34.8137 101.714 34.9737 103.42 34.9203C106.087 34.867 106.567 34.707 106.78 33.8003C106.94 32.787 106.94 32.7337 105.874 33.6937C104.38 35.0803 102.887 34.6537 102.674 32.8403C102.514 31.7203 102.727 31.4003 103.58 31.4003C104.114 31.4003 104.754 31.7203 104.86 32.0403C105.02 32.4137 105.18 32.0403 105.18 31.187C105.234 29.9603 105.074 29.747 104.594 30.227C103.474 31.347 102.567 30.9203 102.567 29.267C102.567 27.9337 102.78 27.667 103.794 27.667C104.487 27.667 105.287 27.9337 105.66 28.307C106.14 28.787 106.3 28.7337 106.3 28.0403C106.3 27.2937 105.82 27.1337 103.794 27.1337H101.234L101.394 30.6537Z" fill="white"/>
<path d="M91.7933 34.1205C90.8867 35.0805 90.8867 35.1338 91.8467 35.1338C92.38 35.1338 92.9667 34.6538 93.1267 34.0671C93.4467 32.7338 93.02 32.7871 91.7933 34.1205Z" fill="white"/>
<path d="M53.3934 37.6403C50.4067 41.0003 53.98 46.547 57.2867 43.667L58.5667 42.547L57.1267 43.4003C55.7934 44.2003 55.6334 44.2003 54.62 43.187C53.3934 41.9603 53.1267 38.9203 54.14 37.907C55.2067 36.8403 57.02 37.1603 57.66 38.4403L58.2467 39.667V38.2803C58.3 37.107 58.0867 36.947 56.2734 36.8403C54.8867 36.7337 53.98 37.0003 53.3934 37.6403Z" fill="white"/>
<path d="M59.7934 37.3735C60.6467 38.2268 60.6467 43.5068 59.7934 43.8268C59.42 43.9868 59.74 44.1468 60.4867 44.1468C61.7134 44.2001 61.82 44.0401 61.6067 42.5468C61.4467 41.4801 61.6067 40.7335 62.0867 40.4135C62.7267 40.0401 62.7267 39.9335 62.0867 39.9335C61.6067 39.9335 61.4467 39.4535 61.6067 38.3335C61.82 36.8935 61.7134 36.7335 60.4867 36.7335C59.4734 36.7335 59.3134 36.8935 59.7934 37.3735Z" fill="white"/>
<path d="M64.4333 40.4672C64.4333 44.0939 64.4867 44.2005 65.7667 44.1472C66.5134 44.1472 66.78 43.9872 66.46 43.8272C66.0334 43.6672 65.7667 42.4405 65.7667 40.4672C65.7667 38.4939 66.0334 37.2672 66.46 37.1072C66.78 36.9472 66.5134 36.7872 65.7667 36.7872C64.4867 36.7339 64.4333 36.8405 64.4333 40.4672Z" fill="white"/>
<path d="M70.0335 39.1869C69.4468 40.5202 68.9668 41.8002 68.9668 42.0669C68.9668 42.3335 68.5935 42.9202 68.1135 43.3469C67.3668 44.1469 67.4201 44.2002 68.8068 44.2002C69.7668 44.2002 70.0868 44.0402 69.6068 43.7735C69.0735 43.4002 69.1268 42.8135 69.9801 40.9469C70.8335 38.9735 71.0468 38.7602 71.3668 39.6669C71.5801 40.2535 71.9535 41.2669 72.2735 41.9069C72.5935 42.4935 72.6468 43.2935 72.4868 43.6135C72.2201 43.9869 72.6468 44.2002 73.6068 44.2002C74.4068 44.2002 74.8335 43.9869 74.5135 43.7735C74.1935 43.5602 73.3401 41.9069 72.7001 40.0402C72.0601 38.2269 71.4201 36.7335 71.2601 36.7335C71.1535 36.7335 70.5668 37.8535 70.0335 39.1869Z" fill="white"/>
<path d="M75.7936 37.3735C76.6469 38.2268 76.6469 43.5068 75.7936 43.8268C75.4202 43.9868 75.8469 44.0935 76.7002 44.0935C77.6069 44.0935 77.9802 43.9868 77.6602 43.8268C77.2336 43.6668 76.9669 42.5468 77.0202 40.8401L77.0736 38.0668L78.1402 41.2668L79.2602 44.4668L80.7536 41.2668L82.1936 38.0668L82.2469 40.8401C82.3002 42.5468 82.0336 43.6668 81.6602 43.8268C81.2869 43.9868 81.5536 44.1468 82.3002 44.1468C83.5802 44.2001 83.6336 44.0935 83.6336 40.4668C83.6336 35.7735 82.5669 35.4001 80.8602 39.5601L79.7402 42.3335L79.1536 40.8401C78.8336 40.0401 78.3536 38.8135 78.0336 38.0668C77.7136 37.2135 77.1269 36.7335 76.3269 36.7335C75.4202 36.7335 75.3136 36.8935 75.7936 37.3735Z" fill="white"/>
<path d="M85.9267 37.1067C86.3 37.2667 86.5667 38.4934 86.5667 40.4667C86.5667 42.4401 86.3 43.6667 85.9267 43.8801C85.5533 44.0401 86.4067 44.0934 87.8467 44.0401C91.0467 43.9334 92.1133 42.7067 90.62 41.1067C90.0333 40.4134 89.8733 39.9334 90.2467 39.6667C91.1 39.1334 90.94 37.4267 89.98 37.0534C89.5 36.8934 88.2733 36.7334 87.2067 36.7867C86.14 36.7867 85.5533 36.9467 85.9267 37.1067ZM89.5 38.6001C89.5 39.1867 89.0733 39.7201 88.5933 39.8267C87.8467 39.9867 87.6333 39.6667 87.6333 38.6001C87.6333 37.5334 87.8467 37.2134 88.5933 37.3734C89.0733 37.4801 89.5 38.0134 89.5 38.6001ZM89.7133 41.2134C90.5133 42.1734 89.8733 43.6667 88.6467 43.6667C87.9 43.6667 87.6333 43.2934 87.6333 42.0667C87.6333 40.3601 88.6467 39.9334 89.7133 41.2134Z" fill="white"/>
<path d="M92.8601 37.1068C93.2334 37.2668 93.5001 38.4934 93.5001 40.4668C93.5001 42.4401 93.2334 43.6668 92.8601 43.8268C92.4867 43.9868 93.6601 44.1468 95.5268 44.1468C98.6201 44.2001 98.8334 44.1468 98.8334 42.9734C98.7801 41.9068 98.7268 41.9068 98.2468 42.7068C97.9268 43.2934 97.0734 43.6668 96.1668 43.6668C94.7267 43.6668 94.5667 43.5068 94.5667 42.0668C94.5667 40.4134 95.4734 39.9868 96.5934 41.1068C97.0734 41.5868 97.2334 41.4268 97.2334 40.2001C97.2334 38.9734 97.0734 38.8134 96.5934 39.2934C95.5268 40.3601 94.5667 40.0401 94.5667 38.6001C94.5667 37.5868 94.8334 37.2668 95.7934 37.2668C96.4868 37.2668 97.2868 37.5334 97.6601 37.9068C98.1401 38.3868 98.3001 38.3334 98.3001 37.6401C98.3001 36.8934 97.7668 36.7334 95.2601 36.7868C93.5534 36.7868 92.4867 36.9468 92.8601 37.1068Z" fill="white"/>
<path d="M100.167 40.4669C100.167 44.0935 100.22 44.2002 101.5 44.1469C102.247 44.1469 102.513 43.9869 102.193 43.8269C101.393 43.5602 101.233 41.0002 101.98 41.0002C102.247 41.0002 102.993 41.6935 103.633 42.6002C104.273 43.4535 105.127 44.2002 105.607 44.2002C106.193 44.2002 106.033 43.7735 104.967 42.4935C103.74 41.0535 103.687 40.7335 104.38 40.3602C105.393 39.7735 105.5 38.2802 104.593 37.3735C104.22 37.0002 103.1 36.7335 102.087 36.7335H100.167V40.4669ZM103.953 38.0669C104.327 39.0269 103.313 40.4669 102.247 40.4669C101.767 40.4669 101.5 39.8802 101.5 38.8669C101.5 37.6402 101.713 37.2669 102.567 37.2669C103.153 37.2669 103.793 37.6402 103.953 38.0669Z" fill="white"/>
<path d="M0.860105 47.1338C2.08677 51.1338 7.47344 54.9205 14.0334 56.4671C21.3935 58.2271 34.2468 56.2005 33.6601 53.3738C33.4468 52.3071 32.4868 52.3605 28.4335 53.4805C26.7801 53.9605 23.4735 54.3338 20.7001 54.3338C12.5401 54.3338 6.24678 52.0405 2.40677 47.6671L0.273438 45.2138L0.860105 47.1338Z" fill="white"/>
<path d="M80.1134 48.5735C79.7401 49.2135 79.1001 50.3335 78.6734 50.9735C78.2468 51.6669 78.0334 52.2002 78.2468 52.2002C78.7268 52.2002 81.3401 47.8802 81.0734 47.5602C80.9134 47.4002 80.4868 47.8802 80.1134 48.5735Z" fill="white"/>
<path d="M0.913393 50.8669C3.58006 57.2669 11.0467 60.8936 21.2334 60.8402C28.4867 60.7869 35.3668 58.3336 33.4468 56.4669C33.1801 56.2002 31.3667 56.4669 29.2334 57.0536C26.8334 57.6936 23.8467 58.0669 20.7001 58.0669C12.4334 58.0669 6.30006 55.7736 2.30006 51.2936L0.0600586 48.7336L0.913393 50.8669Z" fill="white"/>
<path d="M53.3935 55.2405C52.9669 55.7739 52.4335 56.6272 52.2735 57.1605C51.7935 58.3872 52.8602 60.6272 54.1402 61.0005C55.3669 61.4272 57.2335 60.8405 57.2335 60.0939C57.2335 59.7739 56.9135 59.7739 56.4335 60.2005C54.6202 61.6939 52.4869 58.9205 53.4469 56.3072C54.0869 54.6539 55.8469 54.3872 56.6469 55.7739C57.1269 56.6272 57.1802 56.6272 57.2335 55.8805C57.2335 54.2272 54.6202 53.8005 53.3935 55.2405Z" fill="white"/>
<path d="M59.2068 55.2935C58.0335 56.6269 58.0868 59.2935 59.2601 60.3602C61.3935 62.2802 64.1668 60.7335 64.1668 57.6935C64.1668 54.8135 61.0202 53.2669 59.2068 55.2935ZM62.4602 55.5069C63.4202 56.4669 63.2602 60.1469 62.2468 60.5735C60.8602 61.1069 59.6335 59.9869 59.4735 58.1202C59.2068 55.4535 60.9135 53.9602 62.4602 55.5069Z" fill="white"/>
<path d="M66.14 55.5072C66.7267 56.2005 67.5267 57.6405 67.9 58.7605C68.2734 59.9872 68.7534 60.6272 69.02 60.3605C69.7667 59.6139 67.0467 54.3339 65.9267 54.3339C65.18 54.3339 65.18 54.4939 66.14 55.5072Z" fill="white"/>
<path d="M71.0468 54.7071C71.0468 54.9738 70.9401 56.5204 70.9401 58.1738C70.8335 60.6271 70.9935 61.2671 71.6335 61.2671C72.2735 61.2671 72.4335 60.5204 72.4335 57.8004C72.4335 55.4004 72.2201 54.3338 71.7935 54.3338C71.4201 54.3338 71.1001 54.4938 71.0468 54.7071Z" fill="white"/>
<path d="M74.6733 55.3471C75.3133 55.8804 76.1133 57.2671 76.4867 58.4938C77.0733 60.4671 78.0333 61.5338 78.0333 60.2538C78.0333 59.9871 78.1933 59.2938 78.3533 58.7604C78.5667 58.0671 78.5133 57.9604 78.14 58.5471C77.7667 59.0804 77.3933 58.6538 76.7 56.7871C76.0067 54.9204 75.4733 54.3337 74.62 54.3337L73.5 54.3871L74.6733 55.3471Z" fill="white"/>
<path d="M79.2067 55.6671C78.3534 57.4804 78.4067 57.9604 79.2601 56.7871C79.8467 55.9338 79.9534 55.9871 80.0601 57.2138C80.1134 57.9604 79.9001 59.1871 79.6334 59.9338C79.2067 61.0538 79.2601 61.2671 80.1134 61.2671C80.9667 61.2671 81.0201 60.9471 80.8067 58.6004C80.6467 56.8938 80.8067 55.6671 81.2334 55.1338C81.7667 54.4938 81.7134 54.3338 80.8601 54.3338C80.2734 54.3338 79.5267 54.9204 79.2067 55.6671Z" fill="white"/>
<path d="M83.1001 57.8004C83.1001 60.5738 83.2601 61.2671 83.9534 61.2671C84.5934 61.2671 84.7001 60.8404 84.5401 59.5604C84.3268 58.0671 84.4334 57.9604 85.4468 58.2271C86.3534 58.4404 86.5668 58.2804 86.5134 57.3738C86.5134 56.7338 86.3534 56.5204 86.1934 56.8404C85.7134 58.0671 84.4334 57.5871 84.4334 56.2004C84.4334 54.7071 85.8201 54.3871 87.0468 55.5071C87.6334 56.0938 87.7401 56.0404 87.5268 55.4004C87.3668 54.9204 86.4601 54.5471 85.1801 54.4404L83.1001 54.2804V57.8004Z" fill="white"/>
<path d="M89.5 57.8004C89.5 60.8404 89.6067 61.2671 90.5133 61.2671C91.3133 61.2671 91.3667 61.1071 90.8333 60.5204C90.46 59.9871 90.4067 59.4004 90.7267 58.8138C91.1533 58.0671 91.3667 58.1738 92.38 59.6138C93.02 60.5204 93.82 61.2671 94.0867 61.2671C94.4067 61.2671 94.0867 60.5204 93.4467 59.5604C92.5933 58.4404 92.4333 57.8004 92.86 57.6404C93.82 57.3204 93.66 55.0271 92.6467 54.6538C92.1667 54.4938 91.3133 54.3338 90.6733 54.3338C89.6067 54.3338 89.5 54.6004 89.5 57.8004ZM92.3267 56.3604C92.4867 57.2138 92.22 57.5338 91.4733 57.5338C90.7267 57.5338 90.46 57.2138 90.5667 56.3071C90.7267 54.7604 90.7267 54.7604 91.5267 54.9738C91.8467 55.1338 92.22 55.7204 92.3267 56.3604Z" fill="white"/>
<path d="M96.4867 55.1336C95.26 56.4136 94.9934 57.9069 95.74 59.5069C96.5934 61.3202 98.8334 61.7469 99.9534 60.3602C100.647 59.5069 100.593 59.4536 99.7934 60.0936C98.46 61.1602 96.8067 60.4136 96.4334 58.6002C95.7934 55.6669 98.5134 53.4802 99.8467 55.7736C100.327 56.6269 100.38 56.6269 100.433 55.8802C100.433 54.2802 97.82 53.8002 96.4867 55.1336Z" fill="white"/>
<path d="M101.927 55.1336C102.14 55.6136 102.193 57.1603 102.033 58.6536L101.66 61.3203L104.113 61.1603C106.087 61.0536 106.62 60.787 106.727 59.9336C106.94 58.9203 106.887 58.9203 106.193 59.8803C105.18 61.1603 103.42 60.787 103.207 59.187C103.047 58.1203 103.207 57.9603 104.113 58.227C104.807 58.387 105.233 58.227 105.233 57.8003C105.233 57.3736 104.807 57.2136 104.167 57.3736C103.313 57.587 103.1 57.3736 103.1 56.2536C103.1 54.7603 104.487 54.3336 105.66 55.507C106.14 55.987 106.3 55.9336 106.3 55.2403C106.3 54.4936 105.82 54.3336 103.9 54.3336C101.82 54.3336 101.5 54.4936 101.927 55.1336Z" fill="white"/>
<path d="M74.8334 58.7604C74.8334 59.4538 74.5668 60.2538 74.1934 60.6271C73.7134 61.1071 73.7668 61.2671 74.6201 61.2671C75.5268 61.2671 75.6334 61.0004 75.4734 59.4004C75.2068 57.2671 74.8334 56.8938 74.8334 58.7604Z" fill="white"/>
<path d="M65.6067 60.2004C65.3934 61.0004 65.6067 61.2671 66.4067 61.2671C67.3667 61.2671 67.42 61.1604 66.78 60.3071C66.4067 59.8271 66.0334 59.3471 65.98 59.2404C65.9267 59.1871 65.7667 59.5604 65.6067 60.2004Z" fill="white"/>
<path d="M86.5667 60.5738C85.2867 61.2138 85.2867 61.2671 86.4067 61.2671C87.0467 61.2671 87.74 61.0004 87.9 60.6804C88.4867 59.8271 88.0067 59.7738 86.5667 60.5738Z" fill="white"/>
</svg>
