<?xml version="1.0" encoding="utf-8"?>
<!-- Generator: Adobe Illustrator 25.0.1, SVG Export Plug-In . SVG Version: 6.00 Build 0)  -->
<svg version="1.1" id="Layer_1" xmlns="http://www.w3.org/2000/svg" xmlns:xlink="http://www.w3.org/1999/xlink" x="0px" y="0px"
	 viewBox="0 0 54 93" style="enable-background:new 0 0 54 93;" xml:space="preserve">
<style type="text/css">
	.st0{fill:#363737;}
</style>
<path class="st0" d="M7.3,1.8C7.2,3,7.4,4.7,7.7,5.6c0.9,2.9-0.2,2.5-1.1-0.5c-1-3-1.4-1.6-0.5,1.6c0.4,1.5,0,2.4-0.6,1.3
	C5.2,7.6,5.5,8.7,6,9.9c0.3,0.9,0.3,0.9-0.5,0.2c-0.6-0.5-0.9-0.5-0.9-0.1c0,1.4,3.3,8.6,5,11.2c1,1.5,2.5,4.7,3.3,7.2
	c1.4,4.8,3.5,7.9,4.5,6.9c0.4-0.4,0.2-1.3-0.7-3.2C13.5,25.8,13,21,15.2,16.8c1.4-2.6,1.3-3.3-0.6-6.5c-1-1.4-1.9-3.7-2.1-5.1
	l-0.3-2.5l-0.1,2.2c-0.1,3.4-1,2.8-1.5-1.1l-0.5-3.3L9.6,3.9L9.2,7.1l-1-3.7C7.4,0,7.3-0.1,7.3,1.8z"/>
<path class="st0" d="M16.2,17.9c-0.5,0.5-0.7,2.2-0.7,4.6c0,3.3,0.3,4.4,1.9,7.8c1.9,3.9,1.9,4.2,1.2,5.7c-1,2.1-2.4,3-6.2,4.1
	c-1.7,0.5-3,1.1-3,1.2c0,0.2,0.7,0.7,1.6,1.1c1.7,0.8,2.8,0.6,6.1-1.1c1.2-0.6,4.3-1.4,6.9-1.9c2.6-0.4,5.9-1.2,7.3-1.8
	c1.3-0.6,4.8-1.7,7.7-2.3c6.2-1.5,9.5-2.8,9.1-3.5c-0.2-0.3-0.1-0.6,0.3-0.8c0.3-0.2,0.5-0.6,0.5-0.9s-0.4-0.3-0.9,0.2
	c-2.8,2.5-9.9,4.7-14.9,4.7c-3.4,0-4.4-0.6-4.4-2.5c0-1-0.3-1.2-1.4-1.2c-2.8,0-8.3-7.5-9.1-12.4C17.7,16.8,17.3,16.6,16.2,17.9z"/>
<path class="st0" d="M30.2,32.2c-1,1.2,0.1,2.1,1.7,1.5c0.7-0.2,1.4-0.4,1.7-0.3c1.1,0.3,0.2-1.1-1-1.5C30.8,31.3,31,31.2,30.2,32.2
	z"/>
<path class="st0" d="M1.4,71.9c-1.3,2.4,0.2,4.9,2.7,4.8c1.1-0.1,1-0.1-0.4-0.5c-3.1-0.9-2.9-4.4,0.3-4.9C5.3,71,5.2,71,3.7,70.9
	C2.4,70.9,1.8,71.2,1.4,71.9z"/>
<path class="st0" d="M38.8,72.3c-0.4,0.4-0.4,0.7-0.2,0.7s0.6,0.8,0.7,1.7c0.1,1.3,0.5,1.8,1.2,1.9c1,0.1,1,0.1,0.2-0.4
	c-1.1-0.6-1.3-3-0.4-3.3c0.4-0.2,0.4-0.4-0.1-0.8C39.7,71.7,39.3,71.7,38.8,72.3z"/>
<path class="st0" d="M6.4,73.8c-0.6,2.4,2,4,3.5,2.2c0.7-1,0.5-3.1-0.4-3.4c-0.6-0.2-0.6,0-0.1,0.9c0.9,1.3,0.3,2.8-1.1,2.8
	c-1.5,0-2.1-2.1-0.8-3c0.9-0.6,0.9-0.7,0.1-0.7C7.1,72.5,6.6,73.1,6.4,73.8z"/>
<path class="st0" d="M12.1,74.8c0.1,1.8,0.2,1.9,0.3,0.6c0.2-0.9,0.5-1.9,0.7-2.2c0.3-0.4,0.2-0.6-0.3-0.6
	C12.2,72.6,12,73.2,12.1,74.8z"/>
<path class="st0" d="M14.5,73.1c0.3,0.4,0.7,1.4,0.9,2.3c0.2,1.2,0.2,1.1,0.2-0.5c-0.1-1.3-0.3-2.2-0.9-2.3
	C14.1,72.4,14,72.5,14.5,73.1z"/>
<path class="st0" d="M17,73.1c-0.2,0.4,0.1,1,0.7,1.4c1.4,0.9,1.5,1.5,0.3,1.9c-0.9,0.2-0.9,0.3,0,0.3c1.3,0.1,1.8-1.5,0.7-2.3
	c-1.2-0.9-1.1-1.2,0.1-1.5c0.7-0.2,0.6-0.3-0.3-0.3C18,72.5,17.3,72.7,17,73.1z"/>
<path class="st0" d="M21,73.8c-0.7,1.7,0.2,2.9,2.2,2.9c1.1-0.1,1.2-0.1,0.3-0.3c-0.6-0.2-1.4-0.5-1.8-0.9c-0.6-0.5-0.4-0.6,1.2-0.9
	c1.9-0.3,1.9-0.3,1.1-1.3c-0.6-0.9-0.7-0.9-0.5-0.2c0.3,0.7,0.1,1-0.9,1c-0.9,0-1.1-0.2-0.9-0.8C22.3,71.9,21.6,72.4,21,73.8z"/>
<path class="st0" d="M26,74.7c0.1,1.8,0.2,2,0.3,0.7c0.1-0.9,0.6-1.9,1.1-2.3c0.7-0.6,0.7-0.6-0.3-0.6S25.9,72.7,26,74.7z"/>
<path class="st0" d="M29.8,74.4c0.9,2.6,1.6,2.7,2.3,0.3c0.7-2.5,0.4-2.9-0.4-0.6l-0.6,1.8l-0.7-1.8C29.4,71.8,29,72,29.8,74.4z"/>
<path class="st0" d="M35.4,72.8c0.6,0.1,1.2,0.4,1.2,0.7c0,0.3-0.5,0.5-1.2,0.6c-1.4,0.2-1.8,2.2-0.4,2.3c0.5,0.1,0.5-0.1,0.1-0.2
	c-0.9-0.3-0.5-1.4,0.6-1.7c0.6-0.1,0.9,0.2,0.9,0.9c0,1.3,0.9,1.5,1,0.2c0.1-2.3-0.4-3.3-1.9-3.3C34.4,72.6,34.3,72.6,35.4,72.8z"/>
<path class="st0" d="M42.6,74.6c0,1.3,0.1,1.9,0.2,1.2c0.1-0.6,0.1-1.7,0-2.4C42.7,72.7,42.6,73.3,42.6,74.6z"/>
<path class="st0" d="M44.9,72.8c-0.2,0.2-0.4,1-0.4,1.8c0,1.2,0.3,1.6,1.3,1.9c2.3,0.6,3.9-1.8,2.3-3.4
	C47.5,72.4,45.5,72.3,44.9,72.8z M48,73.5c0.6,1-0.3,2.7-1.4,2.7c-1.2,0-1.8-1.2-1.3-2.4C45.6,72.9,47.6,72.7,48,73.5z"/>
<path class="st0" d="M50.4,73.6c0,0.7-0.1,1.7-0.2,2.1c-0.1,0.5,0.1,1,0.3,1c0.3,0,0.5-0.9,0.5-1.9c0-1.5,0.2-1.9,1.1-1.9
	c0.9,0,1.1,0.4,1.1,1.9c0,1,0.2,1.9,0.5,1.9c0.4,0,0.4-1.2,0.1-3.9c0-0.2-0.7-0.4-1.7-0.4C50.8,72.5,50.4,72.7,50.4,73.6z"/>
<path class="st0" d="M23.2,80c-0.2,4.6,0.1,11.9,0.5,12.1c0.4,0.1,0.6-2,0.6-6.2c0-3.9-0.2-6.5-0.5-6.5C23.5,79.4,23.2,79.7,23.2,80
	z"/>
<path class="st0" d="M0.8,86.1c0,5.1,0.2,6.1,0.8,6.1c0.6,0,0.8-0.7,0.8-2.9v-3l3.1,0.2l3,0.2l0.2,2.8c0.1,1.8,0.4,2.8,0.8,2.8
	c0.5,0,0.6-1.7,0.5-6.1c-0.1-3.4-0.4-6.1-0.7-6.1c-0.3,0-0.5,1.2-0.5,2.7v2.7H5.6H2.4v-2.7c0-2-0.2-2.7-0.8-2.7
	C1,79.9,0.8,80.9,0.8,86.1z"/>
<path class="st0" d="M29.3,80.8c-0.4,0.2-0.7,0.7-0.7,1.3c0,0.6-0.4,1-1.1,1c-0.6,0-1.1,0.2-1.1,0.5c0,0.3,0.5,0.5,1.1,0.5
	c0.9,0,1.1,0.4,1.1,2.6c0,3.9,0.7,5.4,2.7,5.4c1.9,0,2.2-0.9,0.4-1.2c-1.1-0.2-1.2-0.5-1.4-3.5c-0.2-3.3-0.1-3.3,1.2-3.3
	c0.7,0,1.3-0.3,1.3-0.5c0-0.3-0.6-0.5-1.3-0.5c-1,0-1.4-0.3-1.5-1.2C30,81.2,29.6,80.7,29.3,80.8z"/>
<path class="st0" d="M14.3,83.5c-1.4,0.5-0.6,1.3,0.9,1c1.8-0.4,3.2,0.4,3.2,1.7c0,0.5-0.6,0.7-1.8,0.7c-3.2,0-5.3,2.8-3.5,4.7
	c0.9,0.9,3.7,0.8,4.6,0c0.6-0.6,0.7-0.6,1-0.1c0.6,1.8,1.2,0.4,1.2-2.8c0-2.8-0.2-3.7-1.1-4.5C18,83.2,15.8,82.9,14.3,83.5z
	 M18.4,88.9c0,1.3-1,2.2-2.5,2.2s-2.1-1.3-1.2-2.4C15.7,87.6,18.4,87.7,18.4,88.9z"/>
<path class="st0" d="M35.8,84.5c-2.8,2.8-0.8,7.9,3.1,7.9c1.3,0,2.4-0.4,3.4-1.3c1.2-1.1,1.3-1.6,1.1-3.7c-0.3-2.8-1.8-4.3-4.5-4.3
	C37.6,83.1,36.6,83.6,35.8,84.5z M40.9,85.1c2,1.8,0.5,6.6-2,6.6c-1.3,0-2.9-2-2.9-3.6C36,84.8,38.8,83.1,40.9,85.1z"/>
<path class="st0" d="M46,84.3c0.1,0.7,0.2,2.7,0.2,4.5c0.1,1.9,0.3,3.4,0.6,3.4s0.5-1.1,0.5-2.3c0-3.1,0.7-5,2.1-5.4
	c2-0.6,3.2,1.1,3.2,4.6c0,1.7,0.2,3.1,0.5,3.1s0.5-1.5,0.5-3.6c0-4.1-0.9-5.4-3.2-5.4c-0.7,0-1.7,0.4-2.2,0.9c-0.9,0.8-1,0.8-1,0
	c0-0.5-0.3-0.9-0.7-0.9C46.1,83.1,45.8,83.6,46,84.3z"/>
</svg>
