<svg width="54" height="93" viewBox="0 0 54 93" fill="none" xmlns="http://www.w3.org/2000/svg">
<path d="M7.2869 1.80007C7.23356 2.9734 7.4469 4.68007 7.71356 5.64007C8.5669 8.57341 7.55356 8.14674 6.59356 5.16007C5.63356 2.12007 5.2069 3.56007 6.11356 6.76007C6.54023 8.25341 6.11356 9.16007 5.47356 8.04007C5.2069 7.56007 5.5269 8.7334 6.0069 9.90674C6.3269 10.7601 6.27356 10.7601 5.47356 10.1201C4.83356 9.58674 4.56689 9.58674 4.56689 10.0667C4.56689 11.4534 7.82023 18.7067 9.58023 21.2667C10.5936 22.7601 12.0869 26.0134 12.8336 28.4668C14.2736 33.2668 16.3002 36.3601 17.3669 35.3468C17.7936 34.9201 17.5802 34.0668 16.6202 32.1468C13.4736 25.8001 13.0469 21.0001 15.2336 16.8401C16.6736 14.2267 16.5669 13.5334 14.5936 10.3867C13.6336 8.94674 12.7269 6.6534 12.5136 5.32007L12.1936 2.86673L12.0869 5.10674C11.9802 8.46674 11.1269 7.88007 10.5936 4.04007L10.1136 0.733398L9.63357 3.9334L9.2069 7.13341L8.2469 3.40007C7.39356 -0.0132675 7.34023 -0.119934 7.2869 1.80007Z" fill="white"/>
<path d="M16.2469 17.9069C15.7669 18.4402 15.5003 20.1469 15.5003 22.5469C15.5003 25.8002 15.7669 26.9202 17.4203 30.3869C19.287 34.2803 19.3403 34.5469 18.5936 36.0936C17.5803 38.1736 16.1936 39.0803 12.3536 40.2003C10.7003 40.6803 9.36694 41.2669 9.36694 41.4269C9.36694 41.6403 10.0603 42.1203 10.9669 42.4936C12.6736 43.2936 13.7403 43.0803 17.0469 41.4269C18.2203 40.8403 21.3136 39.9869 23.9803 39.5603C26.5936 39.1336 29.9003 38.3336 31.2336 37.8003C32.567 37.2136 36.0336 36.1469 38.967 35.4536C45.207 33.9069 48.4603 32.6269 48.0336 31.9336C47.8736 31.6669 47.9803 31.3469 48.3003 31.1336C48.567 30.9736 48.8336 30.5469 48.8336 30.2269C48.8336 29.9069 48.407 29.9602 47.927 30.4402C45.1003 32.9469 38.0603 35.1336 32.9936 35.1336C29.5803 35.1336 28.567 34.5469 28.567 32.6269C28.567 31.6669 28.247 31.4002 27.127 31.4002C24.3536 31.4002 18.8603 23.9336 18.0603 18.9736C17.7403 16.7869 17.3136 16.5736 16.2469 17.9069Z" fill="white"/>
<path d="M30.1668 32.2001C29.2068 33.3734 30.2201 34.2801 31.8201 33.7467C32.5135 33.5334 33.2601 33.3734 33.5268 33.4267C34.5935 33.6934 33.7401 32.3601 32.5135 31.9334C30.8068 31.2934 30.9668 31.2401 30.1668 32.2001Z" fill="white"/>
<path d="M1.36673 71.8803C0.0867304 74.2803 1.52673 76.787 4.08673 76.6803C5.1534 76.627 5.10007 76.5736 3.66007 76.147C0.513397 75.2403 0.726731 71.7203 3.92673 71.2403C5.26007 71.027 5.20673 71.027 3.66007 70.9203C2.4334 70.867 1.7934 71.187 1.36673 71.8803Z" fill="white"/>
<path d="M38.8069 72.2535C38.4336 72.6802 38.3802 73.0002 38.6469 73.0002C38.9136 73.0002 39.2336 73.8002 39.3402 74.7069C39.4469 75.9869 39.8202 76.5202 40.5669 76.6269C41.5269 76.7335 41.5269 76.7335 40.7269 76.2002C39.6602 75.5602 39.4469 73.2135 40.3536 72.8935C40.7802 72.7335 40.7269 72.5202 40.2469 72.0935C39.6602 71.6669 39.3402 71.7202 38.8069 72.2535Z" fill="white"/>
<path d="M6.38019 73.8004C5.79353 76.2004 8.35353 77.8004 9.9002 75.9871C10.6469 75.0271 10.4335 72.8938 9.47353 72.5738C8.88686 72.4138 8.88686 72.5738 9.4202 73.4271C10.2735 74.7604 9.68686 76.2004 8.35353 76.2004C6.86019 76.2004 6.27353 74.0671 7.55353 73.1604C8.40686 72.5204 8.40686 72.4671 7.60686 72.4671C7.12686 72.4671 6.59353 73.0538 6.38019 73.8004Z" fill="white"/>
<path d="M12.0868 74.8136C12.1934 76.6269 12.2468 76.7336 12.4068 75.4002C12.5668 74.4936 12.8868 73.5336 13.1534 73.2136C13.4201 72.8402 13.3134 72.6269 12.8334 72.6269C12.2468 72.6269 12.0334 73.2136 12.0868 74.8136Z" fill="white"/>
<path d="M14.5402 73.0534C14.8602 73.48 15.2335 74.4934 15.3935 75.4C15.6068 76.6267 15.6068 76.4667 15.5535 74.92C15.5002 73.5867 15.2335 72.7334 14.7002 72.5734C14.0601 72.36 14.0068 72.4667 14.5402 73.0534Z" fill="white"/>
<path d="M17.0468 73.107C16.8334 73.4803 17.1534 74.067 17.7934 74.4937C19.2334 75.4003 19.2868 76.0403 18.0601 76.3603C17.1534 76.5737 17.1534 76.627 18.0601 76.6803C19.3934 76.7337 19.8734 75.1337 18.8068 74.3337C17.6334 73.4803 17.6868 73.1603 18.8601 72.8403C19.5534 72.627 19.5001 72.5737 18.5934 72.5203C17.9534 72.5203 17.2601 72.7337 17.0468 73.107Z" fill="white"/>
<path d="M20.9935 73.8C20.2468 75.4534 21.2068 76.7334 23.1802 76.68C24.3002 76.6267 24.3535 76.5734 23.5002 76.36C22.9135 76.2 22.1135 75.8267 21.6868 75.4534C21.0468 74.9734 21.3135 74.8134 22.9135 74.6C24.7802 74.3334 24.8335 74.28 24.0335 73.2667C23.3935 72.4134 23.2868 72.36 23.5535 73.1067C23.8202 73.8534 23.6068 74.0667 22.7002 74.0667C21.8468 74.0667 21.6335 73.8534 21.8468 73.2667C22.3268 71.9334 21.6335 72.36 20.9935 73.8Z" fill="white"/>
<path d="M25.9536 74.707C26.0603 76.5204 26.1136 76.6804 26.2736 75.4004C26.3803 74.4937 26.9136 73.4804 27.3936 73.107C28.1403 72.5204 28.0869 72.467 27.0736 72.467C26.0603 72.467 25.9003 72.7337 25.9536 74.707Z" fill="white"/>
<path d="M29.8468 74.44C30.7534 77.0533 31.4468 77.16 32.1934 74.76C32.9401 72.3067 32.6201 71.8267 31.8201 74.1733L31.1801 75.9333L30.4334 74.1733C29.4201 71.8267 28.9934 71.9867 29.8468 74.44Z" fill="white"/>
<path d="M35.3936 72.8403C36.0336 72.947 36.5669 73.267 36.5669 73.5337C36.5669 73.8003 36.0336 74.067 35.3936 74.1737C34.0069 74.3337 33.6336 76.4137 34.9669 76.5203C35.5002 76.5737 35.5002 76.467 35.0736 76.3603C34.1669 76.0403 34.5402 74.9203 35.6602 74.707C36.3002 74.6003 36.5669 74.867 36.5669 75.6137C36.5669 76.947 37.4202 77.107 37.5269 75.7737C37.6336 73.427 37.1002 72.467 35.6069 72.5203C34.3802 72.627 34.3269 72.627 35.3936 72.8403Z" fill="white"/>
<path d="M42.5935 74.6005C42.5935 75.9338 42.7002 76.4671 42.8068 75.7738C42.9135 75.1338 42.9135 74.0671 42.8068 73.3738C42.7002 72.7338 42.5935 73.2671 42.5935 74.6005Z" fill="white"/>
<path d="M44.9402 72.8404C44.7269 73.0004 44.5669 73.8538 44.5669 74.6538C44.5669 75.8271 44.8869 76.2538 45.9002 76.5204C48.1936 77.1071 49.7936 74.7071 48.1936 73.1071C47.5002 72.4138 45.5269 72.2538 44.9402 72.8404ZM48.0336 73.5338C48.6202 74.4938 47.7136 76.2004 46.6469 76.2004C45.4736 76.2004 44.8336 75.0271 45.3136 73.8004C45.6336 72.8938 47.5536 72.7338 48.0336 73.5338Z" fill="white"/>
<path d="M50.3803 73.6401C50.3803 74.3334 50.2736 75.2934 50.167 75.7734C50.0603 76.3067 50.2203 76.7334 50.487 76.7334C50.7536 76.7334 50.967 75.8801 50.967 74.8667C50.967 73.3734 51.1803 73.0001 52.0336 73.0001C52.887 73.0001 53.1003 73.3734 53.1003 74.8667C53.1003 75.8801 53.3136 76.7334 53.6336 76.7334C54.0603 76.7334 54.0603 75.5067 53.687 72.8401C53.687 72.6267 52.9403 72.4667 52.0336 72.4667C50.7536 72.4667 50.4336 72.6801 50.3803 73.6401Z" fill="white"/>
<path d="M23.1802 80.0404C22.9669 84.6804 23.2869 91.9338 23.7135 92.0938C24.0869 92.2004 24.3002 90.1204 24.3002 85.8537C24.3002 81.9071 24.0869 79.4004 23.7669 79.4004C23.5002 79.4004 23.2335 79.7204 23.1802 80.0404Z" fill="white"/>
<path d="M0.833496 86.0669C0.833496 91.1869 0.993496 92.2002 1.6335 92.2002C2.2735 92.2002 2.4335 91.5069 2.4335 89.2669V86.2802L5.52683 86.4402L8.56684 86.6002L8.72684 89.3735C8.8335 91.1335 9.1535 92.2002 9.52684 92.2002C10.0068 92.2002 10.1135 90.5469 10.0068 86.0669C9.90017 82.7069 9.6335 79.9335 9.3135 79.9335C9.04684 79.9335 8.8335 81.1069 8.8335 82.6002V85.2669H5.6335H2.4335V82.6002C2.4335 80.5735 2.22016 79.9335 1.6335 79.9335C0.993496 79.9335 0.833496 80.9469 0.833496 86.0669Z" fill="white"/>
<path d="M29.2603 80.8402C28.8869 81.0002 28.5669 81.5335 28.5669 82.1202C28.5669 82.7602 28.1936 83.1335 27.5003 83.1335C26.9136 83.1335 26.4336 83.3469 26.4336 83.6669C26.4336 83.9335 26.9136 84.2002 27.5003 84.2002C28.4069 84.2002 28.5669 84.5735 28.5669 86.8135C28.5669 90.7602 29.2603 92.2002 31.2336 92.2002C33.1003 92.2002 33.4203 91.2935 31.6603 91.0269C30.5403 90.8669 30.4336 90.5469 30.2736 87.5069C30.1136 84.2535 30.1669 84.2002 31.5003 84.2002C32.2469 84.2002 32.8336 83.9335 32.8336 83.6669C32.8336 83.3469 32.2469 83.1335 31.5536 83.1335C30.5936 83.1335 30.1669 82.8135 30.0603 81.9069C29.9536 81.1602 29.6336 80.7335 29.2603 80.8402Z" fill="white"/>
<path d="M14.3269 83.507C12.9402 84.0403 13.6869 84.787 15.2336 84.467C16.9936 84.0936 18.4336 84.8403 18.4336 86.1203C18.4336 86.6003 17.7936 86.867 16.6736 86.867C13.4736 86.867 11.3402 89.6936 13.2069 91.5603C14.0602 92.4136 16.9402 92.3603 17.8469 91.5603C18.4336 90.9736 18.5936 90.9736 18.8069 91.507C19.4469 93.267 20.0336 91.8803 20.0336 88.7336C20.0336 85.9603 19.8202 85.0536 18.9669 84.2003C17.9536 83.187 15.8202 82.867 14.3269 83.507ZM18.4336 88.8936C18.4336 90.227 17.4202 91.1336 15.9269 91.1336C14.4336 91.1336 13.7936 89.8536 14.7002 88.7336C15.6602 87.5603 18.4336 87.667 18.4336 88.8936Z" fill="white"/>
<path d="M35.7669 84.4669C32.9403 87.2936 34.9669 92.4136 38.8603 92.4136C40.1936 92.4136 41.2603 91.9869 42.2203 91.0802C43.3936 89.9602 43.5536 89.4802 43.3403 87.4002C43.0203 84.5736 41.527 83.1336 38.8603 83.1336C37.6336 83.1336 36.6203 83.5602 35.7669 84.4669ZM40.9403 85.1069C42.9136 86.8669 41.4736 91.6669 38.9669 91.6669C37.6869 91.6669 36.0336 89.6402 36.0336 88.0402C36.0336 84.8402 38.8069 83.1336 40.9403 85.1069Z" fill="white"/>
<path d="M45.9535 84.3069C46.0068 85.0002 46.1135 87.0269 46.1135 88.8402C46.1668 90.7069 46.3801 92.2002 46.7001 92.2002C47.0201 92.2002 47.2335 91.1335 47.2335 89.8535C47.2335 86.7602 47.9801 84.8935 49.3668 84.4669C51.3935 83.8269 52.5668 85.5335 52.5668 89.1069C52.5668 90.8135 52.7801 92.2002 53.1001 92.2002C53.4201 92.2002 53.6335 90.6535 53.6335 88.5735C53.6335 84.5202 52.7801 83.1335 50.4335 83.1335C49.7401 83.1335 48.7268 83.5069 48.1935 84.0402C47.2868 84.8402 47.2335 84.8402 47.2335 84.0402C47.2335 83.5069 46.9135 83.1335 46.5401 83.1335C46.1135 83.1335 45.8468 83.6135 45.9535 84.3069Z" fill="white"/>
</svg>
