<?xml version="1.0" encoding="utf-8"?>
<!-- Generator: Adobe Illustrator 25.0.1, SVG Export Plug-In . SVG Version: 6.00 Build 0)  -->
<svg version="1.1" id="Layer_1" xmlns="http://www.w3.org/2000/svg" xmlns:xlink="http://www.w3.org/1999/xlink" x="0px" y="0px"
	 viewBox="0 0 102 63" style="enable-background:new 0 0 102 63;" xml:space="preserve">
<style type="text/css">
	.st0{fill:#263030;}
</style>
<path class="st0" d="M36.1,2.5v2.1H51H66V2.5V0.3H51H36.1V2.5z"/>
<path class="st0" d="M36.5,8.7c-0.2,0.2-0.4,5-0.4,10.7v10.3h2.3h2.2l-0.1-10.5L40.5,8.6l-1.8-0.1C37.6,8.4,36.6,8.5,36.5,8.7z"/>
<path class="st0" d="M44.6,11v2.1h10.7H66V11V8.9H55.3H44.6V11z"/>
<path class="st0" d="M44.6,23.5v6.7h10.7H66v-2.4v-2.4h-8.3h-8.3v-1.9v-1.9h8.3H66v-2.4v-2.4H55.3H44.6V23.5z"/>
<path class="st0" d="M0.4,46.5v5.6h1.3c1.2,0,1.3-0.2,1.3-2.1v-2.1h2.1c1.8,0,2.1-0.2,2.1-1.1c0-0.9-0.4-1.1-2.1-1.1S3,45.5,3,44.6
	c0-0.9,0.4-1.1,2.1-1.1c1.9,0,2.1-0.2,2.1-1.3c0-1.3-0.1-1.3-3.5-1.3H0.4V46.5z"/>
<path class="st0" d="M10.3,41.2C10.1,41.4,10,44,10,46.8c0,5.2,0,5.2,1.3,5.2h1.3v-5.6c0-5.1-0.1-5.6-1-5.6
	C11.1,40.9,10.5,41,10.3,41.2z"/>
<path class="st0" d="M15.8,46.4v5.7h1.3c1.1,0,1.3-0.3,1.3-1.6c0-1,0.3-1.6,0.7-1.6c0.4,0,1.3,0.7,1.9,1.6c0.7,1,1.6,1.6,2.5,1.6
	c1.5,0,1.6-0.3,0.2-2c-1-1.2-1-1.4-0.3-2.5c1-1.4,1-4.1,0.1-5.4c-0.5-0.7-1.6-1.1-4.3-1.2l-3.5-0.2V46.4z M21.6,45
	c-0.1,1.2-0.5,1.5-1.6,1.7c-1.3,0.2-1.5,0-1.5-1.4c0-1.5,0.2-1.7,1.7-1.7C21.6,43.5,21.8,43.7,21.6,45z"/>
<path class="st0" d="M28.4,41.7c-1,1-1.1,4.1-0.2,4.9c0.3,0.3,1.4,0.7,2.4,0.9c1.4,0.3,1.8,0.6,1.6,1.5c-0.2,1-0.5,1.2-2.4,1
	c-2-0.1-2.3,0-2.3,0.9c0,0.8,0.5,1.1,2.1,1.4c3.9,0.6,6-1.3,5.2-4.9c-0.3-0.9-0.9-1.4-2.5-1.8c-1.6-0.4-2.1-0.9-2.1-1.7
	c0-1,0.3-1.1,2.1-0.9c1.7,0.2,2.2,0,2.3-0.7c0.4-1.3,0-1.5-2.9-1.5C30.2,40.9,29,41.2,28.4,41.7z"/>
<path class="st0" d="M37.2,42.2c0,1.1,0.3,1.3,1.3,1.3c1.3,0,1.3,0.1,1.3,4.3c0,4.2,0,4.3,1.3,4.3s1.3-0.1,1.3-4.2
	c0-4.2,0-4.3,1.5-4.4c1-0.1,1.4-0.5,1.4-1.2c0-1-0.4-1.1-4.1-1.2C37.2,40.8,37.2,40.8,37.2,42.2z"/>
<path class="st0" d="M53.3,41.7c-1,0.7-1.2,1.3-1.2,4.6c0,2.1,0.2,4.1,0.4,4.5c0.6,1.1,3.4,1.8,5.2,1.4c1.4-0.3,1.7-0.5,1.5-1.3
	c-0.2-0.8-0.7-1-2.4-1h-2.1l0.2-3.4l0.2-3.3l2,0.1c1.8,0.1,2,0,2-1.2c0-1.2-0.2-1.3-2.3-1.3C55.5,40.9,53.9,41.2,53.3,41.7z"/>
<path class="st0" d="M62.2,46.5v5.6h3.5c3,0,3.5-0.1,3.3-1c-0.1-0.6-0.8-1-2.5-1.1l-2.2-0.2v-4.5c0-4.1-0.1-4.5-1.1-4.5
	C62.3,40.9,62.2,41.2,62.2,46.5z"/>
<path class="st0" d="M74.3,41.5c-0.7,2.1-3,10-3,10.2c0,0.2,0.6,0.3,1.3,0.3c0.8,0,1.4-0.4,1.5-1.1c0.2-0.8,0.7-1.1,2.2-1.1
	c1.5,0,1.9,0.2,1.9,1.1c0,0.8,0.4,1.1,1.3,1.1c1.6,0,1.6-0.2-0.2-6.1c-1.4-4.6-1.5-4.8-3.1-5C75.1,40.9,74.4,41.1,74.3,41.5z
	 M76.6,44.7c0,0.4,0.2,1.2,0.3,1.9c0.3,1,0.1,1.2-0.9,1.2c-1,0-1.1-0.2-0.9-1.2c0.2-0.6,0.3-1.5,0.3-1.9c0-0.3,0.3-0.6,0.5-0.6
	C76.4,44.1,76.6,44.4,76.6,44.7z"/>
<path class="st0" d="M84.5,41.5c-0.6,0.4-1,1.2-1,2.6c0,2.2,0.6,3,2.8,3.5c3.2,0.8,2.2,3.1-1.1,2.6c-1.1-0.2-1.8-0.1-1.8,0.3
	c0,0.3-0.1,0.7-0.1,1c-0.3,0.6,3,1.2,4.8,0.9c2.1-0.4,3.1-2.1,2.6-4.2c-0.3-1-1-1.7-2.8-2.4c-3-1.3-2.9-2.4,0.3-2.3
	c2,0.1,2.2-0.1,2.1-1.1c-0.1-0.9-0.6-1.1-2.6-1.2C86.5,40.9,85,41.1,84.5,41.5z"/>
<path class="st0" d="M94.7,41.5c-0.6,0.4-1,1.2-1,2.6c0,2.2,0.6,3,2.8,3.5c3,0.8,2.2,3.1-0.9,2.6c-1-0.2-1.7-0.1-2,0.4
	c-0.7,1-0.2,1.4,2,1.8c2.7,0.4,4.8-0.4,5.2-2.1c0.5-2.2-0.3-3.5-2.8-4.6c-2.9-1.3-2.8-2.3,0.3-2.3c2,0.1,2.2-0.1,2.1-1.1
	c-0.1-0.9-0.6-1.1-2.6-1.2C96.6,40.9,95.1,41.1,94.7,41.5z"/>
<path class="st0" d="M22.2,60.3c0,1.3,0.3,2.4,0.5,2.4c0.3,0,0.5-0.5,0.5-1c0-0.6,0.4-1.1,1.2-1.3l1.2-0.2l-1.2-0.1
	C23,60.1,22.9,59,24.4,59c0.6,0,1.1-0.3,1.1-0.5c0-0.3-0.7-0.5-1.6-0.5C22.3,57.9,22.2,58,22.2,60.3z"/>
<path class="st0" d="M29.2,60.3c0,2.2,0.1,2.4,1.3,2.4c0.7,0,1.3-0.3,1.3-0.5c0-0.3-0.4-0.5-0.8-0.5c-0.5,0-0.8-0.6-0.8-1.9
	c0-1-0.2-1.9-0.5-1.9C29.4,57.9,29.2,59,29.2,60.3z"/>
<path class="st0" d="M35.6,58.8c-1.1,1.3-0.1,3.6,1.8,3.8c0.9,0.1,1.9-0.1,2.3-0.5c0.9-0.7,1-2.7,0.1-3.6
	C38.8,57.7,36.4,57.8,35.6,58.8z M39,60.3c0,1.2-1.7,1.8-2.5,0.9c-0.9-0.9-0.1-2.3,1.3-2.1C38.6,59.2,39,59.6,39,60.3z"/>
<path class="st0" d="M44.2,58.6c-0.4,0.4-0.6,1.1-0.6,1.8c0,1.5,1,2.4,2.7,2.4c1.7,0,2.7-0.9,2.7-2.4c0-1.5-1-2.4-2.7-2.4
	C45.5,57.9,44.6,58.2,44.2,58.6z M47.6,60.3c0,1.2-1.7,1.8-2.5,0.9c-0.9-0.9-0.1-2.3,1.3-2.1C47.1,59.2,47.6,59.6,47.6,60.3z"/>
<path class="st0" d="M52.1,60.3c0,1.3,0.3,2.5,0.5,2.5c0.3,0,0.5-0.4,0.5-0.8s0.3-0.8,0.5-0.8c0.3,0,0.7,0.4,0.9,0.8
	c0.6,1.5,1.1,0.8,1.1-1.5c-0.1-2.1-0.2-2.2-1.8-2.4C52.1,57.9,52.1,57.9,52.1,60.3z"/>
<path class="st0" d="M59.6,60.3c0,1.3,0.3,2.4,0.5,2.4c0.3,0,0.5-1.1,0.5-2.4c0-1.3-0.2-2.4-0.5-2.4C59.8,57.9,59.6,59,59.6,60.3z"
	/>
<path class="st0" d="M64.4,60.3c0,1.3,0.3,2.4,0.5,2.4c0.3,0,0.5-0.6,0.5-1.5l0.1-1.4l1.1,1.4c1.7,2.3,2.6,1.9,2.6-0.9
	c0-1.3-0.2-2.4-0.5-2.4c-0.3,0-0.5,0.6-0.5,1.3c0,0.7-0.2,1.3-0.4,1.3c-0.3,0-0.7-0.6-1.1-1.3C65.5,57,64.4,57.6,64.4,60.3z"/>
<path class="st0" d="M72.8,59.1c-1,1.9,0.2,3.7,2.5,3.7c1.7,0,1.9-0.2,1.9-1.3c0-1-0.3-1.3-1.1-1.3c-1,0-1.1,0.1-0.4,0.9
	c0.6,0.7,0.5,0.8-0.6,0.6c-2-0.3-1.8-2.2,0.2-2.5c1.9-0.2,1.9-1.2-0.2-1.2C74,57.9,73.3,58.3,72.8,59.1z"/>
</svg>
