<svg width="102" height="63" viewBox="0 0 102 63" fill="none" xmlns="http://www.w3.org/2000/svg">
<path d="M36.1003 2.46676V4.6001H51.0337H65.967V2.46676V0.333428H51.0337H36.1003V2.46676Z" fill="white"/>
<path d="M36.4737 8.70698C36.2603 8.86698 36.1003 13.667 36.1003 19.3737V29.667H38.3937H40.6337L40.527 19.1603L40.4737 8.60031L38.6603 8.49364C37.647 8.38698 36.6337 8.49364 36.4737 8.70698Z" fill="white"/>
<path d="M44.6335 11V13.1333H55.3002H65.9669V11V8.86663H55.3002H44.6335V11Z" fill="white"/>
<path d="M44.6335 23.5335V30.2002H55.3002H65.9669V27.8002V25.4002H57.7002H49.4335V23.5335V21.6669H57.7002H65.9669V19.2669V16.8669H55.3002H44.6335V23.5335Z" fill="white"/>
<path d="M0.366943 46.4669V52.0669H1.70028C2.92695 52.0669 3.03361 51.8536 3.03361 49.9336V47.8002H5.16695C6.92695 47.8002 7.30028 47.6402 7.30028 46.7336C7.30028 45.8269 6.92695 45.6669 5.16695 45.6669C3.40695 45.6669 3.03361 45.5069 3.03361 44.6002C3.03361 43.6936 3.40695 43.5336 5.16695 43.5336C7.08695 43.5336 7.30028 43.3736 7.30028 42.2002C7.30028 40.9202 7.19362 40.8669 3.83361 40.8669H0.366943V46.4669Z" fill="white"/>
<path d="M10.3404 41.2402C10.127 41.4002 9.96704 43.9602 9.96704 46.8402C9.96704 52.0669 9.96704 52.0669 11.3004 52.0669H12.6337V46.4669C12.6337 41.4002 12.527 40.8669 11.6737 40.8669C11.1404 40.8669 10.5004 41.0269 10.3404 41.2402Z" fill="white"/>
<path d="M15.8337 46.4136V52.0669H17.1671C18.2871 52.0669 18.5004 51.8002 18.5004 50.4669C18.5004 49.4536 18.7671 48.8669 19.2471 48.8669C19.6737 48.8669 20.5271 49.5602 21.1671 50.4669C21.9137 51.4802 22.7671 52.0669 23.6204 52.0669C25.1671 52.0669 25.2204 51.8002 23.8337 50.0936C22.8737 48.8669 22.8737 48.6536 23.5671 47.6402C24.5804 46.2002 24.5804 43.5336 23.6204 42.2002C23.0871 41.4536 22.0204 41.1336 19.3537 40.9736L15.8337 40.7602V46.4136ZM21.5937 44.9736C21.4871 46.1469 21.1137 46.5202 19.9937 46.6269C18.6604 46.7869 18.5004 46.6269 18.5004 45.1869C18.5004 43.6936 18.6604 43.5336 20.1537 43.5336C21.5937 43.5336 21.7537 43.6936 21.5937 44.9736Z" fill="white"/>
<path d="M28.4202 41.7202C27.4069 42.6802 27.3002 45.8269 28.2602 46.6269C28.5802 46.8935 29.7002 47.3202 30.6602 47.5335C32.1002 47.8002 32.4202 48.1202 32.2602 49.0269C32.1002 50.0402 31.7802 50.2002 29.8602 50.0402C27.8869 49.9335 27.5669 50.0402 27.5669 50.9469C27.5669 51.7469 28.0469 52.0669 29.6469 52.3335C33.5936 52.9735 35.6736 51.0002 34.8202 47.4802C34.5536 46.5735 33.9136 46.0935 32.3669 45.6669C30.7669 45.2402 30.2336 44.8135 30.2336 44.0135C30.2336 43.0535 30.5002 42.8935 32.3136 43.1069C33.9669 43.2669 34.5002 43.1069 34.6602 42.3602C35.0336 41.0802 34.6602 40.8669 31.7802 40.8669C30.1802 40.8669 28.9536 41.1869 28.4202 41.7202Z" fill="white"/>
<path d="M37.167 42.2002C37.167 43.2669 37.4337 43.5336 38.5003 43.5336C39.8337 43.5336 39.8337 43.5869 39.8337 47.8002C39.8337 52.0136 39.8337 52.0669 41.167 52.0669C42.5003 52.0669 42.5003 52.0136 42.5003 47.8536C42.5003 43.6402 42.5003 43.5869 43.9937 43.4269C45.007 43.3202 45.4337 42.9469 45.4337 42.2002C45.4337 41.2402 45.007 41.1336 41.327 40.9736C37.167 40.8136 37.167 40.8136 37.167 42.2002Z" fill="white"/>
<path d="M53.2737 41.72C52.2603 42.4134 52.1003 43 52.1003 46.36C52.1003 48.4934 52.3137 50.4667 52.527 50.84C53.167 51.9067 55.887 52.6534 57.7003 52.28C59.087 52.0134 59.407 51.7467 59.1937 50.9467C58.9803 50.1467 58.447 49.9334 56.7937 49.9334H54.7137L54.8737 46.5734L55.0337 43.2667L57.0603 43.3734C58.8203 43.48 59.0337 43.3734 59.0337 42.2C59.0337 40.9734 58.8203 40.8667 56.7403 40.8667C55.5137 40.8667 53.9137 41.24 53.2737 41.72Z" fill="white"/>
<path d="M62.2336 46.4669V52.0669H65.7536C68.7936 52.0669 69.2203 51.9602 69.0603 51.1069C68.9536 50.4669 68.2603 50.1469 66.607 50.0402L64.367 49.8802V45.3469C64.367 41.2402 64.2603 40.8669 63.3003 40.8669C62.287 40.8669 62.2336 41.2402 62.2336 46.4669Z" fill="white"/>
<path d="M74.287 41.5069C73.5403 43.6402 71.3003 51.4802 71.3003 51.7469C71.3003 51.9069 71.887 52.0669 72.5803 52.0669C73.3803 52.0669 73.967 51.6936 74.127 51.0002C74.3403 50.2002 74.8736 49.9336 76.3136 49.9336C77.8603 49.9336 78.2336 50.1469 78.2336 51.0002C78.2336 51.8002 78.607 52.0669 79.567 52.0669C81.167 52.0669 81.167 51.9069 79.3536 45.9336C77.967 41.2936 77.8603 41.1336 76.207 40.9736C75.1403 40.8669 74.3936 41.0802 74.287 41.5069ZM76.6336 44.7069C76.6336 45.0802 76.7936 45.9336 76.9536 46.5736C77.2203 47.5869 77.0603 47.8002 76.1003 47.8002C75.1403 47.8002 74.9803 47.5869 75.247 46.5736C75.407 45.9336 75.567 45.0802 75.567 44.7069C75.567 44.3869 75.8336 44.0669 76.1003 44.0669C76.4203 44.0669 76.6336 44.3869 76.6336 44.7069Z" fill="white"/>
<path d="M84.5269 41.4533C83.8869 41.8267 83.5669 42.6267 83.5669 44.0133C83.5669 46.2533 84.1536 47 86.3936 47.5333C89.5936 48.3333 88.6336 50.6267 85.3269 50.0933C84.2069 49.88 83.5669 49.9867 83.5669 50.4133C83.5669 50.7333 83.5136 51.16 83.4603 51.3733C83.1936 52.0133 86.4469 52.6 88.2603 52.28C90.3403 51.9067 91.3536 50.2 90.8203 48.0667C90.5536 47.0533 89.8069 46.4133 88.0469 45.6667C85.0603 44.3333 85.1669 43.2667 88.3136 43.32C90.2869 43.3733 90.5536 43.2133 90.3936 42.2533C90.2869 41.3467 89.8069 41.1333 87.8336 41.0267C86.5003 40.92 85.0069 41.1333 84.5269 41.4533Z" fill="white"/>
<path d="M94.6603 41.4534C94.0203 41.8267 93.7003 42.6267 93.7003 44.0134C93.7003 46.2534 94.287 47 96.527 47.5334C99.567 48.3334 98.767 50.68 95.6737 50.0934C94.6603 49.88 93.967 50.04 93.7003 50.52C93.007 51.5334 93.487 51.9067 95.727 52.3334C98.3937 52.76 100.527 51.9067 100.954 50.2534C101.487 48.0667 100.687 46.7334 98.127 45.6134C95.1937 44.3334 95.3537 43.2667 98.447 43.32C100.42 43.3734 100.687 43.2134 100.527 42.2534C100.42 41.3467 99.9404 41.1334 97.967 41.0267C96.6337 40.92 95.1403 41.1334 94.6603 41.4534Z" fill="white"/>
<path d="M22.2336 60.3334C22.2336 61.6667 22.5003 62.7334 22.767 62.7334C23.087 62.7334 23.3003 62.2534 23.3003 61.7201C23.3003 61.0801 23.727 60.6001 24.527 60.4401L25.7003 60.2267L24.527 60.1201C23.0336 60.0667 22.8736 59.0001 24.367 59.0001C24.9536 59.0001 25.4336 58.7334 25.4336 58.4667C25.4336 58.1467 24.7403 57.9334 23.8336 57.9334C22.287 57.9334 22.2336 58.0401 22.2336 60.3334Z" fill="white"/>
<path d="M29.167 60.3334C29.167 62.5201 29.2737 62.7334 30.5003 62.7334C31.247 62.7334 31.8337 62.4667 31.8337 62.2001C31.8337 61.8801 31.4603 61.6667 31.0337 61.6667C30.5003 61.6667 30.2337 61.0801 30.2337 59.8001C30.2337 58.7867 30.0203 57.9334 29.7003 57.9334C29.4337 57.9334 29.167 59.0001 29.167 60.3334Z" fill="white"/>
<path d="M35.567 58.7868C34.447 60.1202 35.5137 62.4135 37.327 62.6268C38.1804 62.7335 39.1937 62.5202 39.6204 62.1468C40.527 61.4002 40.5804 59.4268 39.727 58.5735C38.8204 57.6668 36.367 57.7735 35.567 58.7868ZM39.0337 60.3335C39.0337 61.5068 37.3804 62.0935 36.527 61.2402C35.6204 60.3335 36.4737 58.8935 37.807 59.1068C38.607 59.2135 39.0337 59.6402 39.0337 60.3335Z" fill="white"/>
<path d="M44.2069 58.5734C43.8336 58.9467 43.5669 59.6934 43.5669 60.3334C43.5669 61.8267 44.5802 62.7334 46.2336 62.7334C47.8869 62.7334 48.9002 61.8267 48.9002 60.3334C48.9002 58.8401 47.8869 57.9334 46.2336 57.9334C45.4869 57.9334 44.5802 58.2001 44.2069 58.5734ZM47.5669 60.3334C47.5669 61.5067 45.9136 62.0934 45.0602 61.2401C44.1536 60.3334 45.0069 58.8934 46.3402 59.1067C47.1402 59.2134 47.5669 59.6401 47.5669 60.3334Z" fill="white"/>
<path d="M52.1003 60.2801C52.1003 61.6134 52.367 62.7334 52.6337 62.7334C52.9537 62.7334 53.167 62.3601 53.167 61.9334C53.167 61.5067 53.4337 61.1334 53.7003 61.1334C54.0203 61.1334 54.3937 61.5067 54.5537 61.9334C55.1403 63.4267 55.6737 62.7334 55.6203 60.4401C55.567 58.3067 55.4603 58.2001 53.8603 58.0401C52.1003 57.8801 52.1003 57.8801 52.1003 60.2801Z" fill="white"/>
<path d="M59.5669 60.3334C59.5669 61.6667 59.8336 62.7334 60.1002 62.7334C60.4202 62.7334 60.6336 61.6667 60.6336 60.3334C60.6336 59.0001 60.4202 57.9334 60.1002 57.9334C59.8336 57.9334 59.5669 59.0001 59.5669 60.3334Z" fill="white"/>
<path d="M64.3669 60.3335C64.3669 61.6669 64.6336 62.7335 64.9003 62.7335C65.2203 62.7335 65.4336 62.0935 65.4336 61.2402L65.4869 59.8002L66.5536 61.2402C68.2603 63.5335 69.1669 63.1602 69.1669 60.3335C69.1669 59.0002 68.9536 57.9335 68.6336 57.9335C68.3669 57.9335 68.1003 58.5202 68.1003 59.2669C68.1003 60.0135 67.8869 60.6002 67.6736 60.6002C67.4069 60.6002 66.9269 60.0135 66.6069 59.2669C65.5403 57.0269 64.3669 57.5602 64.3669 60.3335Z" fill="white"/>
<path d="M72.847 59.0534C71.8336 60.9734 73.007 62.7334 75.3003 62.7334C76.9536 62.7334 77.167 62.5734 77.167 61.4001C77.167 60.3867 76.9003 60.0667 76.047 60.0667C75.0336 60.0667 74.9803 60.1734 75.6203 60.9201C76.207 61.6667 76.1536 61.7201 75.0336 61.5601C73.0603 61.2934 73.2203 59.3201 75.1936 59.1067C77.1136 58.8934 77.0603 57.9334 75.0336 57.9334C73.967 57.9334 73.2736 58.3067 72.847 59.0534Z" fill="white"/>
</svg>
