<?xml version="1.0" encoding="utf-8"?>
<!-- Generator: Adobe Illustrator 25.0.1, SVG Export Plug-In . SVG Version: 6.00 Build 0)  -->
<svg version="1.1" id="Layer_1" xmlns="http://www.w3.org/2000/svg" xmlns:xlink="http://www.w3.org/1999/xlink" x="0px" y="0px"
	 viewBox="0 0 129 34" style="enable-background:new 0 0 129 34;" xml:space="preserve">
<style type="text/css">
	.st0{fill:#363737;}
</style>
<path class="st0" d="M54.5,1.9c-2.2,1.3-3.3,3.9-3.3,7.7c0,6.1,2.8,9.3,7.5,8.7c4.2-0.5,6.2-4.1,5.7-10.1c-0.3-3.7-1.4-5.5-3.8-6.6
	C58.1,0.5,56.6,0.6,54.5,1.9z M59.4,4.3c1.7,1.7,1.8,9.5,0.1,10.9c-1.1,1-3.1,0.4-3.9-1.1C54.7,12.4,55,5.5,56,4.3
	C56.9,3.3,58.4,3.2,59.4,4.3z"/>
<path class="st0" d="M0.6,9.5c0,7.4,0.1,8.2,1,8.4c1.8,0.5,2.2-0.1,2.2-3.3v-3.1l2.6-0.2C8.5,11.2,8.8,11,9,10
	c0.2-1.1,0-1.2-2.5-1.2H3.8V6.1V3.5H7c2.8,0,3.2-0.1,3.2-1.1c0-1-0.4-1.1-4.8-1.1H0.6V9.5z"/>
<path class="st0" d="M43.2,3.1c0,0.4-0.4,0.9-0.8,1.1C42,4.4,41.6,5,41.6,5.6s0.4,1.1,0.8,1.1c0.6,0,0.8,0.9,0.8,5
	c0,4.6,0.1,5.1,1.2,5.9c0.6,0.5,1.9,0.9,2.7,0.9c1.2,0,1.5-0.2,1.5-1.3c0-0.8-0.3-1.3-0.8-1.3c-1.3,0-1.9-2-1.8-5.5
	c0.2-3,0.3-3.3,1.4-3.5c1.6-0.3,1.4-2.5-0.2-2.5c-0.7,0-1.1-0.3-1-1s-0.3-0.9-1.4-0.9C43.8,2.4,43.2,2.7,43.2,3.1z"/>
<path class="st0" d="M81.1,3.1c0,0.4-0.4,0.9-0.8,1.1c-0.4,0.2-0.8,0.8-0.8,1.4c0,0.6,0.4,1.1,0.8,1.1c0.6,0,0.8,0.9,0.8,4.8
	c0,4.2,0.2,5,1.1,5.9c1.5,1.5,4.4,1.2,4.6-0.4c0.1-0.9-0.2-1.2-1.2-1.5c-1.3-0.3-1.4-0.5-1.4-4.6c0-3.9,0.1-4.3,1.1-4.3
	c0.7,0,1.1-0.4,1.1-1.1c0-0.6-0.4-1.2-1.1-1.4c-0.6-0.2-1.1-0.6-1.1-1c0-0.5-0.6-0.7-1.6-0.7S81.1,2.7,81.1,3.1z"/>
<path class="st0" d="M22.4,10.9v7H24h1.6v-4.3c0-3.6,0.2-4.4,1.1-5.4c0.6-0.6,1.4-1,1.9-0.8c0.5,0.2,0.7-0.2,0.7-1.5
	c0-1.5-0.2-1.9-1.1-1.9c-0.6,0-1.4,0.6-2,1.4l-0.9,1.4l-0.3-1.3c-0.2-0.8-0.7-1.3-1.5-1.4C22.4,3.9,22.4,4,22.4,10.9z"/>
<path class="st0" d="M32.3,5.3c-1.4,1.3-1.7,3.6-0.8,5.1c0.3,0.4,1.5,1.3,2.8,1.9c1.8,0.9,2.3,1.4,2.3,2.4c0,1.8-2,2.1-3.1,0.5
	c-1.2-1.8-3.3-0.4-2.1,1.4c1.2,1.8,4.5,2.3,6.4,1c3-2.1,2.6-5.8-1-7.5c-2.2-1-3.2-2.1-2.8-3.3c0.3-0.9,2-0.8,2.8,0.2
	c0.4,0.4,1,0.8,1.4,0.8c1.3,0,1.3-1.1,0-2.4C36.5,3.6,34,3.6,32.3,5.3z"/>
<path class="st0" d="M68.1,4.4C67.7,4.7,67.7,17.5,68,18c0.2,0.2,0.9,0.2,1.6,0c1.3-0.2,1.3-0.4,1.3-4.9c0-5.6,0.3-6.4,1.9-6.4
	c1.3,0,1.3,0.1,1.3,5.6v5.6h1.6h1.6v-6c0-5.2-0.2-6.2-1-6.9c-1.2-1.1-3.5-1.2-4.4-0.1c-0.6,0.7-0.7,0.7-1.1,0
	C70.4,4,68.8,3.7,68.1,4.4z"/>
<path class="st0" d="M91,5.1c-0.7,0.6-1.4,1.4-1.4,1.9c0,1,2.5,1,3.1-0.1c0.8-1.4,2.5-0.7,2.7,1.2c0.2,1.5,0.1,1.7-2,2
	c-2.9,0.4-4.3,1.9-4.3,4.5c0,3.6,2.8,4.9,5.5,2.7c1.1-0.9,1.4-1,1.4-0.3c0,0.5,0.5,0.9,1.3,0.9h1.3v-5.6c0-5.3-0.1-5.7-1.3-6.9
	C95.8,3.7,93,3.6,91,5.1z M95.5,13.3c0,2-1.1,3.3-2.4,2.8c-1-0.4-1.1-3-0.2-3.9c0.4-0.4,1.1-0.6,1.6-0.6
	C95.3,11.5,95.5,11.9,95.5,13.3z"/>
<path class="st0" d="M102.2,4.4c-0.4,0.4-0.4,13.2-0.1,13.6c0.2,0.2,0.9,0.2,1.6,0c1.3-0.2,1.3-0.4,1.3-4.2c0-4.6,0.6-6,2.4-6
	c1.2,0,1.3-0.2,1.3-1.9c0-1.5-0.2-1.9-1-1.9c-0.6,0-1.5,0.6-2.1,1.4l-1.1,1.5l-0.1-1.3c0-1-0.3-1.4-1-1.4
	C103,4.1,102.4,4.2,102.2,4.4z"/>
<path class="st0" d="M111.5,10.9v7h1.6h1.7l-0.2-6.8l-0.2-6.8L113,4.1l-1.5-0.2V10.9z"/>
<path class="st0" d="M119.2,5.2c-2.3,2.1-2.7,9.2-0.6,11.6c2.3,2.6,7.4,1.8,8.6-1.3c1.5-3.6,0.5-9.6-1.8-10.8
	C123.6,3.6,120.7,3.9,119.2,5.2z M123.8,6.9c0.9,1.1,0.9,7.7-0.1,8.6c-1.7,1.8-3.1-0.2-3.1-4.4C120.6,7,122.1,5,123.8,6.9z"/>
<path class="st0" d="M16.5,8.6c0.3,6.3,0.5,7,0.5,1.6c0.1-2.8-0.1-5.2-0.3-5.2C16.5,5.1,16.4,6.7,16.5,8.6z"/>
<path class="st0" d="M15.4,9.3c-0.5,1.1-0.7,6.9-0.3,6.9c0.2,0,0.5-0.5,0.7-1.2C16.2,13.4,15.8,8.3,15.4,9.3z"/>
<path class="st0" d="M13,16.7c0,0.6,0.3,0.9,0.5,0.8c0.6-0.4,0.5-1.8-0.1-1.8C13.1,15.7,12.9,16.2,13,16.7z"/>
<path class="st0" d="M16,16.5c-0.5,0.6-0.5,0.8,0.2,0.8c1,0,1.7-0.9,1-1.3C16.9,15.9,16.4,16.1,16,16.5z"/>
<path class="st0" d="M1.1,26.4c-2,2-1.1,6.4,1.3,6.4c1.3,0,2.9-1.4,2.2-2c-0.2-0.2-0.7,0.1-1.1,0.7c-0.8,1-0.8,1-1.6,0
	c-1.3-1.7-0.9-5.1,0.6-5.1c0.4,0,0.9,0.4,1.1,0.8c0.4,0.9,1.3,1.1,1.3,0.3c0-0.6-1.5-2.2-2.2-2.2C2.4,25.3,1.7,25.8,1.1,26.4z"/>
<path class="st0" d="M26.9,25.8l-1.8,0.2v3.5v3.4h2.3c1.5,0,2-0.2,1.5-0.5c-0.4-0.3-1.2-0.4-1.8-0.3c-0.7,0.2-1-0.1-1-1.1
	c0-0.9,0.3-1.3,1.1-1.3c0.6,0,1.1-0.3,1.1-0.5c0-0.3-0.5-0.5-1.1-0.5c-0.7,0-1.1-0.4-1.1-1c0-0.8,0.4-1.1,1.8-1.2
	c0.9-0.1,1.5-0.3,1.2-0.4C28.8,25.7,27.8,25.7,26.9,25.8z"/>
<path class="st0" d="M110.4,26.4c-2,2-0.8,6.4,1.9,6.4c1.5,0,2.4-1.4,2.4-3.7c0-1.6-1.5-3.8-2.7-3.8C111.8,25.3,111,25.8,110.4,26.4
	z M113.4,27.8c0.5,1.8-0.4,4.2-1.4,4.2c-1.2,0-1.9-2.6-1.2-4.3C111.7,26,113,26,113.4,27.8z"/>
<path class="st0" d="M12.8,29.3c0,2,0.2,3.5,0.5,3.5s0.5-0.7,0.5-1.6c0-0.9,0.3-1.6,0.6-1.6c0.3,0,0.8,0.7,1.1,1.6
	c0.3,0.9,0.8,1.6,1.1,1.6c0.6,0,0.6-0.2-0.1-1.8c-0.5-1.1-0.5-1.5,0-2.1c0.4-0.4,0.5-1.3,0.3-1.9c-0.3-0.8-0.8-1.1-2.2-1.1h-1.8
	V29.3z M15.8,27.7c0,0.6-0.4,1.1-0.9,1.2c-0.7,0.2-1-0.2-1-1.2c0-1.1,0.2-1.4,1-1.2C15.3,26.6,15.8,27.1,15.8,27.7z"/>
<path class="st0" d="M36.8,29.3v3.5h1.5c2.7,0,3.9-2.7,2.6-5.6c-0.5-1-1-1.3-2.4-1.3h-1.8V29.3z M40,27.5c0.8,1.5,0.2,4.1-1.1,4.4
	c-0.9,0.3-1,0-1-2.6C37.9,26.2,38.9,25.3,40,27.5z"/>
<path class="st0" d="M49.6,29.3c0,2,0.2,3.5,0.5,3.5s0.5-1.5,0.5-3.5c0-2-0.2-3.5-0.5-3.5S49.6,27.4,49.6,29.3z"/>
<path class="st0" d="M58.3,26.2c0.7,0.2,0.9,0.9,0.9,3.4c0,1.8,0.2,3.1,0.5,3.1s0.5-1.4,0.5-3.1c0-2.6,0.2-3.2,1-3.4
	c0.5-0.2-0.2-0.3-1.5-0.3S57.8,26.1,58.3,26.2z"/>
<path class="st0" d="M75.2,27.9c0,3.1,0.8,4.9,2.3,4.9c0.7,0,1.5-0.3,1.9-0.6c0.7-0.7,0.9-6.3,0.1-6.3c-0.3,0-0.5,1.3-0.5,2.9
	s-0.3,3.1-0.5,3.3c-1.2,0.7-2.1-0.9-2.1-3.5c0-1.4-0.2-2.6-0.5-2.6C75.5,25.9,75.2,26.8,75.2,27.9z"/>
<path class="st0" d="M87.5,29.3c0,2,0.2,3.5,0.5,3.5s0.5-1.3,0.6-2.8v-2.8l1.4,2.8c0.7,1.5,1.6,2.8,1.8,2.8c0.2,0,0.4-1.6,0.3-3.6
	c-0.1-3.5-0.1-3.5-0.4-0.9l-0.3,2.7l-1.2-2.6C88.6,24.6,87.5,25,87.5,29.3z"/>
<path class="st0" d="M100.3,29c0,1.8,0.3,3.4,0.5,3.5c0.3,0.2,0.5-1,0.5-3.1c0-2-0.2-3.5-0.5-3.5S100.3,27.3,100.3,29z"/>
<path class="st0" d="M122.8,29.4l0.1,3.6l0.4-2.9l0.3-2.9l1.3,2.8c0.7,1.5,1.5,2.8,1.7,2.8c0.2,0,0.4-1.6,0.3-3.6
	c-0.1-3.3-0.1-3.4-0.4-1.2l-0.3,2.4l-1.2-2.3c-0.6-1.2-1.4-2.2-1.7-2.2C122.9,25.9,122.8,27.4,122.8,29.4z"/>
</svg>
