<svg width="129" height="34" viewBox="0 0 129 34" fill="none" xmlns="http://www.w3.org/2000/svg">
<path d="M54.5406 1.86697C52.3539 3.20031 51.2339 5.76031 51.2339 9.54698C51.2339 15.627 54.0072 18.8803 58.7006 18.2403C62.9139 17.707 64.9406 14.1336 64.4072 8.10698C64.0872 4.42697 62.9672 2.56031 60.5672 1.54697C58.0606 0.533638 56.6206 0.586971 54.5406 1.86697ZM59.3939 4.26697C61.1006 5.92031 61.1539 13.8136 59.5006 15.2003C58.3806 16.1603 56.4072 15.627 55.6072 14.1336C54.7006 12.427 54.9672 5.54698 55.9806 4.32031C56.8872 3.25364 58.3806 3.20031 59.3939 4.26697Z" fill="white"/>
<path d="M0.567139 9.54675C0.567139 16.9068 0.673805 17.7601 1.52714 17.9734C3.34047 18.4534 3.76714 17.8668 3.76714 14.6668V11.5201L6.32714 11.3601C8.46048 11.2001 8.83381 11.0401 8.99381 9.97342C9.15381 8.90675 8.99381 8.80009 6.48714 8.80009H3.76714V6.13342V3.46675H6.96714C9.79381 3.46675 10.1671 3.36008 10.1671 2.40008C10.1671 1.38675 9.79381 1.33342 5.36714 1.33342H0.567139V9.54675Z" fill="white"/>
<path d="M43.234 3.14705C43.234 3.57371 42.8607 4.00038 42.434 4.21371C42.0074 4.37371 41.634 5.01371 41.634 5.60038C41.634 6.18705 42.0074 6.66705 42.434 6.66705C43.074 6.66705 43.234 7.57372 43.234 11.6804C43.234 16.3204 43.3407 16.8004 44.4074 17.5471C45.0474 18.0271 46.274 18.4004 47.074 18.4004C48.3007 18.4004 48.5674 18.1871 48.5674 17.0671C48.5674 16.2671 48.2474 15.7337 47.7674 15.7337C46.4874 15.7337 45.8474 13.7604 46.0074 10.2404C46.1674 7.25372 46.274 6.93372 47.394 6.77372C48.994 6.50705 48.834 4.26705 47.234 4.26705C46.5407 4.26705 46.1674 3.94705 46.2207 3.30705C46.274 2.66705 45.9007 2.40038 44.7807 2.40038C43.8207 2.40038 43.234 2.66705 43.234 3.14705Z" fill="white"/>
<path d="M81.1005 3.14686C81.1005 3.57353 80.7272 4.00019 80.3005 4.21353C79.8738 4.37353 79.5005 5.01353 79.5005 5.60019C79.5005 6.18686 79.8738 6.66686 80.3005 6.66686C80.9405 6.66686 81.1005 7.57353 81.1005 11.4669C81.1005 15.6269 81.2605 16.4269 82.2205 17.3869C83.7138 18.8802 86.6472 18.6135 86.8605 17.0135C86.9672 16.1602 86.6472 15.7869 85.6872 15.5202C84.3538 15.2002 84.3005 15.0402 84.3005 10.9335C84.3005 7.04019 84.4072 6.66686 85.3672 6.66686C86.1138 6.66686 86.4338 6.29353 86.4338 5.54686C86.4338 4.90686 86.0072 4.32019 85.3672 4.16019C84.7805 4.00019 84.3005 3.52019 84.3005 3.14686C84.3005 2.66686 83.7138 2.40019 82.7005 2.40019C81.6872 2.40019 81.1005 2.66686 81.1005 3.14686Z" fill="white"/>
<path d="M22.4338 10.88V17.8667H24.0338H25.6338V13.6C25.6338 9.97336 25.7938 9.17336 26.7538 8.21336C27.3405 7.62669 28.1938 7.25336 28.6205 7.41336C29.1538 7.62669 29.3672 7.25336 29.3672 5.86669C29.3672 4.37335 29.1538 4.00002 28.3005 4.00002C27.7138 4.00002 26.8605 4.64002 26.3272 5.44002L25.4205 6.82669L25.1005 5.54669C24.8872 4.74669 24.3538 4.21336 23.6072 4.10669C22.4338 3.94669 22.4338 4.00002 22.4338 10.88Z" fill="white"/>
<path d="M32.3005 5.33368C30.9138 6.66702 30.5938 8.96035 31.5005 10.4004C31.7672 10.827 32.9938 11.6804 34.2738 12.267C36.0872 13.1204 36.5672 13.6537 36.5672 14.667C36.5672 16.427 34.5938 16.8004 33.4738 15.2004C32.2472 13.4404 30.1672 14.7737 31.3938 16.587C32.5672 18.4004 35.8738 18.8804 37.7938 17.547C40.8338 15.4137 40.3538 11.7337 36.7805 10.0804C34.5405 9.12035 33.5805 7.94702 34.0072 6.77368C34.3272 5.86702 36.0338 5.97368 36.8338 6.93368C37.2072 7.36035 37.7938 7.73369 38.2205 7.73369C39.5538 7.73369 39.5538 6.66702 38.2205 5.33368C36.4605 3.57368 34.0072 3.57368 32.3005 5.33368Z" fill="white"/>
<path d="M68.1405 4.37374C67.7138 4.74707 67.6605 17.5471 68.0338 17.9737C68.1938 18.1338 68.9405 18.1338 69.6338 17.9737C70.9138 17.7604 70.9672 17.6004 70.9672 13.0671C70.9672 7.46708 71.2338 6.66707 72.8872 6.66707C74.1672 6.66707 74.1672 6.72041 74.1672 12.2671V17.8671H75.7672H77.3672V11.8404C77.3672 6.61374 77.2072 5.65374 76.4072 4.90707C75.1805 3.78707 72.8872 3.73374 71.9805 4.85374C71.3938 5.60041 71.2872 5.60041 70.8605 4.85374C70.3805 4.00041 68.7805 3.68041 68.1405 4.37374Z" fill="white"/>
<path d="M91.0206 5.11999C90.2739 5.70666 89.6339 6.55999 89.6339 6.98666C89.6339 8 92.1406 7.94666 92.7273 6.87999C93.5273 5.43999 95.2339 6.18666 95.3939 8.05333C95.5539 9.6 95.4473 9.76 93.3673 10.08C90.4873 10.5067 89.1006 12 89.1006 14.56C89.1006 18.1333 91.8739 19.4667 94.6473 17.28C95.7673 16.3733 96.0339 16.32 96.0339 17.0133C96.0339 17.5467 96.5139 17.8667 97.3673 17.8667H98.7006V12.2667C98.7006 6.98666 98.5939 6.55999 97.3673 5.33333C95.7673 3.67999 92.9939 3.57333 91.0206 5.11999ZM95.5006 13.28C95.5006 15.2533 94.3806 16.5867 93.1006 16.0533C92.1406 15.68 92.0339 13.0133 92.9406 12.1067C93.3139 11.7333 94.0073 11.4667 94.5406 11.4667C95.2873 11.4667 95.5006 11.8933 95.5006 13.28Z" fill="white"/>
<path d="M102.221 4.37374C101.847 4.80041 101.794 17.6004 102.167 17.9737C102.327 18.1338 103.074 18.1338 103.767 17.9737C105.047 17.7604 105.101 17.6004 105.101 13.7604C105.101 9.17374 105.687 7.73374 107.501 7.73374C108.674 7.73374 108.834 7.52041 108.834 5.86707C108.834 4.37374 108.621 4.00041 107.821 4.00041C107.234 4.00041 106.274 4.64041 105.687 5.44041L104.621 6.93374L104.567 5.60041C104.567 4.64041 104.247 4.21374 103.554 4.16041C103.021 4.10707 102.381 4.21374 102.221 4.37374Z" fill="white"/>
<path d="M111.501 10.88V17.8667H113.101H114.754L114.594 11.04L114.434 4.26669L112.994 4.10669L111.501 3.94669V10.88Z" fill="white"/>
<path d="M119.234 5.17363C116.887 7.30696 116.514 14.4003 118.647 16.747C120.994 19.307 126.007 18.507 127.287 15.4136C128.834 11.787 127.821 5.81363 125.474 4.58696C123.607 3.62696 120.727 3.89363 119.234 5.17363ZM123.767 6.88029C124.674 8.0003 124.621 14.6136 123.661 15.5203C121.954 17.2803 120.567 15.307 120.567 11.0936C120.567 6.98696 122.114 4.96029 123.767 6.88029Z" fill="white"/>
<path d="M16.4606 8.64031C16.7272 14.987 16.9406 15.627 16.9939 10.2403C17.0472 7.41364 16.9406 5.06698 16.7272 5.06698C16.4606 5.06698 16.3539 6.66698 16.4606 8.64031Z" fill="white"/>
<path d="M15.3939 9.33375C14.8606 10.4538 14.6472 16.2671 15.0739 16.2671C15.2872 16.2671 15.6072 15.7338 15.7672 15.0404C16.1939 13.3871 15.8206 8.32042 15.3939 9.33375Z" fill="white"/>
<path d="M12.994 16.7471C12.994 17.3337 13.2607 17.6537 13.474 17.5471C14.0607 17.1737 14.0073 15.7337 13.4207 15.7337C13.1007 15.7337 12.9407 16.2137 12.994 16.7471Z" fill="white"/>
<path d="M16.0338 16.5335C15.5005 17.1735 15.5005 17.3335 16.1938 17.3335C17.2072 17.3335 17.8472 16.4802 17.1538 16.0535C16.8872 15.8935 16.4072 16.1068 16.0338 16.5335Z" fill="white"/>
<path d="M1.10055 26.4003C-0.872785 28.3736 0.0338825 32.8003 2.38055 32.8003C3.66055 32.8003 5.26055 31.4136 4.62055 30.827C4.46055 30.6136 3.92722 30.9336 3.50055 31.5203C2.70055 32.5336 2.70055 32.5336 1.90055 31.5203C0.567216 29.8136 0.993883 26.4003 2.48722 26.4003C2.91388 26.4003 3.39389 26.7736 3.55389 27.2003C3.92722 28.0536 4.83389 28.3203 4.83389 27.5203C4.83389 26.8803 3.28722 25.3336 2.64722 25.3336C2.38055 25.3336 1.68722 25.8136 1.10055 26.4003Z" fill="white"/>
<path d="M26.8606 25.7603L25.1006 25.9203V29.387V32.8003H27.3939C28.8873 32.8003 29.3673 32.6403 28.8873 32.3203C28.4606 32.0536 27.6606 31.8936 27.1273 32.0003C26.4339 32.1603 26.1673 31.8936 26.1673 30.8803C26.1673 29.9736 26.4339 29.6003 27.2339 29.6003C27.8206 29.6003 28.3006 29.3336 28.3006 29.067C28.3006 28.747 27.8206 28.5336 27.2339 28.5336C26.5406 28.5336 26.1673 28.1603 26.1673 27.5203C26.1673 26.7203 26.5939 26.4003 27.9273 26.2936C28.8339 26.187 29.4206 26.027 29.1006 25.867C28.8339 25.707 27.7673 25.6536 26.8606 25.7603Z" fill="white"/>
<path d="M110.434 26.4003C108.407 28.427 109.634 32.8003 112.301 32.8003C113.794 32.8003 114.701 31.4136 114.701 29.1203C114.701 27.5203 113.154 25.3336 112.034 25.3336C111.767 25.3336 111.021 25.8136 110.434 26.4003ZM113.421 27.787C113.901 29.547 113.047 32.0003 112.034 32.0003C110.861 32.0003 110.114 29.387 110.861 27.7336C111.661 25.9736 112.994 26.027 113.421 27.787Z" fill="white"/>
<path d="M12.834 29.3336C12.834 31.307 13.0473 32.8003 13.3673 32.8003C13.6873 32.8003 13.9007 32.0536 13.9007 31.2003C13.9007 30.2936 14.1673 29.6003 14.4873 29.6003C14.754 29.6003 15.2873 30.2936 15.554 31.2003C15.874 32.0536 16.354 32.8003 16.6207 32.8003C17.2607 32.8003 17.2073 32.587 16.514 30.987C16.034 29.9203 16.034 29.4403 16.514 28.8536C16.8873 28.427 17.0473 27.5736 16.834 26.9336C16.5673 26.1336 16.034 25.867 14.6473 25.867H12.834V29.3336ZM15.7673 27.7336C15.7673 28.3203 15.3407 28.8536 14.8607 28.9603C14.114 29.1203 13.9007 28.8003 13.9007 27.7336C13.9007 26.667 14.114 26.347 14.8607 26.507C15.3407 26.6136 15.7673 27.147 15.7673 27.7336Z" fill="white"/>
<path d="M36.834 29.3336V32.8003H38.3807C41.0473 32.8003 42.3273 30.0803 40.994 27.2003C40.514 26.187 39.9807 25.867 38.594 25.867H36.834V29.3336ZM40.034 27.5203C40.834 29.0136 40.194 31.5736 38.914 31.8936C38.0073 32.1603 37.9007 31.8936 37.9007 29.2803C37.9007 26.187 38.914 25.3336 40.034 27.5203Z" fill="white"/>
<path d="M49.634 29.3336C49.634 31.307 49.8474 32.8003 50.1674 32.8003C50.4874 32.8003 50.7007 31.307 50.7007 29.3336C50.7007 27.3603 50.4874 25.867 50.1674 25.867C49.8474 25.867 49.634 27.3603 49.634 29.3336Z" fill="white"/>
<path d="M58.3273 26.2403C59.074 26.4536 59.234 27.0936 59.234 29.6536C59.234 31.4136 59.4473 32.8003 59.7673 32.8003C60.0873 32.8003 60.3006 31.4136 60.3006 29.6536C60.3006 27.0936 60.4606 26.4536 61.2606 26.2403C61.7406 26.0803 61.1006 25.9736 59.7673 25.9736C58.434 25.9736 57.794 26.0803 58.3273 26.2403Z" fill="white"/>
<path d="M75.2339 27.947C75.2339 31.0936 76.0339 32.8003 77.5272 32.8003C78.2206 32.8003 79.0206 32.5336 79.3939 32.1603C80.1406 31.4136 80.2472 25.867 79.5006 25.867C79.2339 25.867 78.9672 27.147 78.9672 28.747C78.9672 30.347 78.7006 31.8403 78.4339 32.0003C77.2606 32.6936 76.3006 31.0936 76.3006 28.4803C76.3006 27.0403 76.0872 25.867 75.7672 25.867C75.5006 25.867 75.2339 26.827 75.2339 27.947Z" fill="white"/>
<path d="M87.5005 29.3336C87.5005 31.307 87.7138 32.8003 88.0338 32.8003C88.3538 32.8003 88.5672 31.5203 88.6205 29.9736V27.2003L90.0605 29.9736C90.8072 31.5203 91.6605 32.8003 91.8738 32.8003C92.0872 32.8003 92.2472 31.2003 92.1938 29.1736C92.1405 25.6536 92.1405 25.6536 91.8205 28.267L91.5005 30.9336L90.3272 28.3736C88.5672 24.6403 87.5005 25.0136 87.5005 29.3336Z" fill="white"/>
<path d="M100.301 29.0133C100.301 30.7733 100.567 32.3733 100.834 32.5333C101.154 32.7467 101.367 31.5733 101.367 29.3866C101.367 27.4133 101.154 25.8666 100.834 25.8666C100.514 25.8666 100.301 27.2533 100.301 29.0133Z" fill="white"/>
<path d="M122.807 29.4402L122.861 33.0669L123.234 30.1336L123.554 27.2002L124.834 29.9736C125.527 31.5202 126.327 32.8002 126.541 32.8002C126.754 32.8002 126.914 31.2002 126.861 29.1736C126.807 25.9202 126.754 25.8136 126.487 28.0002L126.167 30.4002L124.941 28.1069C124.301 26.8802 123.501 25.8669 123.234 25.8669C122.914 25.8669 122.754 27.4136 122.807 29.4402Z" fill="white"/>
</svg>
