<?xml version="1.0" encoding="utf-8"?>
<!-- Generator: Adobe Illustrator 25.0.1, SVG Export Plug-In . SVG Version: 6.00 Build 0)  -->
<svg version="1.1" id="Layer_1" xmlns="http://www.w3.org/2000/svg" xmlns:xlink="http://www.w3.org/1999/xlink" x="0px" y="0px"
	 viewBox="0 0 77 89" style="enable-background:new 0 0 77 89;" xml:space="preserve">
<style type="text/css">
	.st0{fill:#363737;}
</style>
<path class="st0" d="M22.6,0.7c-1.8,0.5-3.4,2.2-3.4,3.8c0,0.8-0.3,0.9-2.3,0.6c-4.4-0.6-7.9,2.3-8.3,7c-0.2,2.5-0.1,3.3,1.1,5
	c1.7,2.5,4.3,3.5,7.4,3c2.9-0.5,3.8,0.2,6.4,4.5c1.2,2.1,2.4,3.7,2.7,3.7c0.2,0,0.7-1,1.1-2.2c0.7-2.4,3.1-4.7,4.9-4.7
	c0.6,0,2,0.5,3,1.1l1.9,1.1l-1.3-1.1c-2.7-2.3-5.7-2-8.4,0.9l-1.7,1.9l-1.7-3c-0.9-1.6-2.1-3.2-2.6-3.5c-0.5-0.3-2.2-0.4-3.8-0.2
	c-2.3,0.2-3.3,0.1-4.6-0.8c-4.2-2.7-3.6-8.6,1.2-10.8c2.6-1.1,4.3-0.8,6.6,1.2c1.3,1.3,1.6,0.6,0.4-1c-2.3-3.1,1.7-7.1,5.8-5.6
	c2.2,0.9,3.3,2.9,2.8,5.7c-0.2,1.5-0.1,2.3,0.2,2.1c0.3-0.2,0.5-0.7,0.5-1.3c0-2.8,5.9-3.8,8.3-1.4c1.4,1.3,1.8,3.1,0.8,3.7
	c-0.3,0.2-0.5,0.6-0.5,1c0,0.3,0.4,0.1,0.8-0.5c1.2-1.5,1-3.6-0.6-5.1c-1.1-1.1-1.9-1.3-4.9-1.3c-3-0.1-3.6-0.2-4.1-1.2
	C28.9,1,25.7-0.2,22.6,0.7z"/>
<path class="st0" d="M46.4,8c-2.5,0.8-3.5,1.6-4.2,3.3c-2.6,6.2,9.1,14.2,18,12.3c3.2-0.7,5.5-2.9,5.4-5.2c0-1.3-0.1-1.3-0.6,0.4
	c-1,2.8-2.8,3.8-6.8,3.8c-4.8,0.1-9-1.6-12.4-4.9c-2.3-2.3-2.6-2.7-2.5-4.5c0.3-3,2.1-4.2,6.7-4.2c2-0.1,4.4,0.1,5.2,0.3l1.6,0.4
	l-1.7-0.7C53,7.9,48.2,7.4,46.4,8z"/>
<path class="st0" d="M46,25.1c-0.5,0.9-1.2,1.1-3.3,1.1c-1.4,0-2.8,0.3-3.1,0.6c-0.4,0.5,0.1,0.7,2.3,0.7c2.2,0,3.1-0.3,4-1.1
	c0.6-0.6,1.1-1.4,1-1.8C46.8,24.3,46.4,24.5,46,25.1z"/>
<path class="st0" d="M32.3,26.2c-0.4,0.7,0.2,1.7,0.9,1.3c0.6-0.4,0.6-1.9,0-1.9C32.8,25.7,32.5,25.9,32.3,26.2z"/>
<path class="st0" d="M49.5,26.6c-0.3,1.3-0.1,6,0.3,6c0.2,0,0.4-1.2,0.4-2.7c0-2.4,0.1-2.7,0.8-2.1c0.7,0.6,0.7,0.5,0.5-0.2
	C51.1,26.7,49.7,26,49.5,26.6z"/>
<path class="st0" d="M33.8,28.5c-2.5,2.1-3.7,2.5-5.2,1.9c-1.5-0.5-1.9,0.3-0.7,1.5c1.4,1.4,4.6,0.5,6.5-1.9
	c0.7-0.9,1.5-1.2,2.9-1.2c1.8,0,1.9-0.1,0.9-0.8C36.7,26.9,35.6,27.1,33.8,28.5z"/>
<path class="st0" d="M54.3,29.4c-1.7,1.3-1.8,1.3-2.1,0.1c-0.2-0.5-0.3-0.1-0.3,0.9l-0.1,1.9l1.5-1.4c0.8-0.7,2-1.6,2.8-1.9
	c0.8-0.3,1-0.5,0.5-0.5C56,28.3,55,28.8,54.3,29.4z"/>
<path class="st0" d="M22.2,33.2c-1.6,1.9-1.4,3.8,0.4,5.5c1,0.8,1.6,0.9,4.3,0.6c3.9-0.5,6.2-0.5,9.3,0c2,0.3,2.6,0.2,3.8-0.7
	c0.7-0.6,1.5-1.8,1.8-2.7c0.2-0.9,0.7-1.9,1.1-2.2c1.2-1,0.9-1.7-0.5-0.7c-0.7,0.5-1.4,1.4-1.6,2.1c-0.5,1.9-2.6,3.1-4.9,2.7
	c-1-0.2-2.7-0.5-3.8-0.6c-1-0.2-2.9-0.1-4.2,0.3c-2.1,0.6-2.6,0.5-3.7-0.2c-1.4-1-1.8-2.8-0.8-4.6C24.4,31.1,23.8,31.3,22.2,33.2z"
	/>
<path class="st0" d="M60.1,33c-0.6,0.1-2.2,1.1-3.7,2c-2.8,1.9-3.6,2-6.2,0.4c-1.1-0.6-1.1-0.5,0.3,0.7l1.6,1.5l-1.8,3.5
	c-1.1,2.1-1.3,2.8-0.6,1.8c1.5-2,7.1-7.5,8.9-8.6c0.7-0.5,2-0.9,2.9-0.8c0.9,0,1.5-0.2,1.5-0.4C63,32.8,61.7,32.7,60.1,33z"/>
<path class="st0" d="M59.3,50.5c-0.3,0.5-0.6,0.7-0.6,0.5c0-0.3-0.2-0.2-0.5,0.2c-1,1.6,2.1,3,3.6,1.5c0.8-0.8,0.8-1.5,0.1-1.5
	c-0.4,0-0.9-0.4-1.3-0.9C60,49.6,59.9,49.6,59.3,50.5z"/>
<path class="st0" d="M4.9,53.5c-3.3,1.7-4.6,3.6-4.5,6.7C0.4,66,5.2,68.8,13,67.5l2-0.4v-3.9v-3.9H12c-2.9,0-2.9,0-2.9,1.6
	c0,1,0.3,1.5,0.6,1.5c0.3-0.1,0.7,0.3,0.9,0.7c0.2,0.7-0.2,1-1.4,1c-3.4,0-5.1-4.3-2.7-6.8c1.3-1.4,3.1-1.7,6.6-1
	c1.3,0.3,1.4,0.2,1.4-1.3c0-1.9-0.4-2.2-4.2-2.5C7.8,52.3,6.8,52.5,4.9,53.5z"/>
<path class="st0" d="M18,52.7c-0.9,0.2-0.9,0.9-0.8,7.5l0.2,7.3h2.4h2.4l0.2-7.4c0.1-5.7,0-7.3-0.5-7.3c-0.4,0-1.2-0.1-1.8-0.2
	C19.4,52.5,18.5,52.5,18,52.7z"/>
<path class="st0" d="M25.3,52.8c-0.1,0.1-0.2,3.6-0.2,7.6v7.4h2.4h2.4v-3.7c0-2.1,0.2-3.7,0.4-3.7c0.2,0,2,1.7,3.9,3.7
	c3.3,3.4,3.7,3.6,5.6,3.6l2.1-0.1l0.2-7.1c0.1-3.9-0.1-7.3-0.3-7.5c-0.2-0.2-1.5-0.3-2.8-0.1L36.7,53l0.3,3.4
	c0.1,1.9,0.1,3.4-0.1,3.4c-0.2,0-1.9-1.5-3.7-3.4c-2.8-2.8-3.7-3.5-5.5-3.6C26.5,52.7,25.5,52.7,25.3,52.8z"/>
<path class="st0" d="M48.8,52.7c-1.4,0.3-3.6,2.2-4.4,3.8c-1.1,2-0.8,6.5,0.5,8.3c3.1,4.3,10.6,4,13.7-0.6c2.2-3.3,1.2-8.3-2.1-10.5
	C55.1,52.8,50.8,52.2,48.8,52.7z M53.2,57c1.7,1.1,1.7,5,0,6.1c-2,1.3-4.6-0.5-4.6-3.1C48.6,57.7,51.4,55.9,53.2,57z"/>
<path class="st0" d="M63.1,53.7c-1.3,1.1-1.7,1.9-1.7,3.2c0,1.8,1.1,3,4.9,5.7l1.2,0.9L66.3,64c-0.9,0.5-1.5,0.4-3-0.2l-1.9-0.8v1.8
	c0,2.2,0.3,2.4,4,2.8c3.4,0.4,5.3-0.6,6.2-2.9c0.7-2-0.5-4.3-3.1-5.7c-1.1-0.6-2-1.5-2.1-2.1c-0.2-0.9,0.1-1,1.6-0.7
	c1,0.2,2.2,0.4,2.7,0.7c0.8,0.3,1,0.1,0.9-1c-0.2-2-1.5-3-4.3-3.4C65.2,52.3,64.5,52.4,63.1,53.7z"/>
<path class="st0" d="M1.5,74c-0.3,0.2-0.4,3.6-0.4,7.6v7.3l2.7-0.2l2.7-0.2v-2.6v-2.6h2.5c3,0,4.2-0.6,5.3-2.7
	c1.1-2,0.4-4.6-1.4-5.8C11.4,74,2.2,73.3,1.5,74z M9.8,77.5c0.8,1.3-0.2,2.8-2,3c-1.3,0.2-1.4,0.1-1.4-2c0-2.1,0.1-2.2,1.4-2
	C8.6,76.5,9.5,77,9.8,77.5z"/>
<path class="st0" d="M16.9,74c-0.2,0.2-0.4,3.6-0.4,7.6v7.3l2.7-0.2l2.7-0.2l-0.2-7.3l-0.2-7.3l-2.1-0.2
	C18.3,73.7,17.2,73.8,16.9,74z"/>
<path class="st0" d="M24.4,74c-0.2,0.2-0.4,1.1-0.4,1.9c0,1.5,0,1.5,4,1.7l4.1,0.2l-3.7,5.4c-2.1,3-3.7,5.5-3.6,5.6
	c0.2,0.1,3.6,0.2,7.8,0.1l7.5-0.2l-0.2-1.4c-0.2-1.4-0.3-1.4-3.8-1.7l-3.6-0.3l2.8-4.3c1.6-2.3,3.3-4.9,3.8-5.7l0.9-1.4l-7.6-0.1
	C28.2,73.7,24.6,73.8,24.4,74z"/>
<path class="st0" d="M41.7,75.4l0.2,1.8l3.6,0.2c2,0.1,3.6,0.3,3.6,0.4c0,0.2-1.4,2.3-3.1,4.9c-1.7,2.6-3.3,5-3.5,5.3
	c-0.3,0.5,1.3,0.7,7.1,0.7h7.5V87v-1.6h-3.5c-1.9,0-3.5-0.1-3.5-0.3s1.4-2.5,3.2-5.1c1.8-2.6,3.4-5.1,3.5-5.5
	c0.3-0.7-0.8-0.8-7.5-0.8h-7.8L41.7,75.4z"/>
<path class="st0" d="M64.7,74.1c-0.3,0.2-1.2,1.9-2,3.8c-0.8,1.9-2,4.5-2.7,5.9c-0.6,1.3-1.4,2.9-1.5,3.6c-0.4,1.2-0.2,1.2,2,1.2
	c1.9,0,2.5-0.2,2.7-1.1c0.3-0.9,0.8-1.1,4-1.1c3.1,0,3.7,0.2,4,1c0.2,0.8,0.9,1.1,2.9,1.2c1.7,0.1,2.6-0.1,2.5-0.4
	c-1.6-3.6-6.3-13.9-6.6-14.1C69.7,73.8,65.3,73.7,64.7,74.1z M68.5,80.8c0.5,1.2,0.9,2.5,0.9,2.7c0,0.2-1,0.4-2.1,0.4
	s-2.1-0.2-2.1-0.4c0-0.9,1.8-5,2.1-5C67.4,78.5,68,79.5,68.5,80.8z"/>
</svg>
