<svg width="77" height="89" viewBox="0 0 77 89" fill="none" xmlns="http://www.w3.org/2000/svg">
<path d="M22.594 0.653475C20.7807 1.18681 19.234 2.89348 19.234 4.44014C19.234 5.24014 18.914 5.34681 16.9407 5.08014C12.514 4.44014 9.04733 7.42681 8.674 12.0668C8.46067 14.5735 8.62067 15.3202 9.794 17.0802C11.4473 19.5335 14.0607 20.6002 17.154 20.1202C20.034 19.6402 20.994 20.3335 23.554 24.6002C24.7807 26.6802 25.954 28.3335 26.2207 28.3335C26.434 28.3335 26.9673 27.3735 27.2873 26.1468C28.034 23.7468 30.434 21.4002 32.194 21.4002C32.834 21.4002 34.2207 21.8802 35.234 22.4668L37.1007 23.5868L35.8207 22.4668C33.1007 20.1202 30.114 20.4402 27.394 23.3202L25.6873 25.1868L23.9807 22.2002C23.074 20.6002 21.9007 19.0002 21.4207 18.7335C20.8873 18.4668 19.1807 18.3602 17.5807 18.5202C15.2873 18.7335 14.3273 18.5735 12.9407 17.7202C8.72733 15.0535 9.36734 9.08015 14.1673 6.94681C16.7273 5.82681 18.4873 6.14681 20.7273 8.17348C22.0607 9.45348 22.3273 8.81348 21.1007 7.21348C18.754 4.06681 22.8073 0.0668068 26.8607 1.61348C29.1007 2.46681 30.114 4.49348 29.6873 7.32015C29.5273 8.86681 29.5807 9.61348 29.9007 9.40015C30.2207 9.24015 30.434 8.65348 30.434 8.12015C30.434 5.29348 36.3007 4.28014 38.7007 6.73348C40.0874 8.06681 40.4607 9.88015 39.5007 10.4668C39.234 10.6268 38.9674 11.0535 38.9674 11.4268C38.9674 11.7468 39.3407 11.5335 39.7674 10.9468C40.9407 9.40015 40.7274 7.32015 39.1807 5.88014C38.0607 4.81348 37.2607 4.60014 34.3274 4.54681C31.2873 4.49348 30.754 4.33348 30.2207 3.32014C28.9407 0.973475 25.6873 -0.19986 22.594 0.653475Z" fill="white"/>
<path d="M46.3806 8.01353C43.874 8.81353 42.8606 9.61353 42.1673 11.2669C39.6073 17.5069 51.2873 25.5069 60.1406 23.5335C63.3406 22.8402 65.634 20.6002 65.5806 18.3069C65.5806 16.9735 65.5273 16.9735 64.9406 18.6802C63.9273 21.5069 62.1673 22.5202 58.1673 22.5202C53.3673 22.5735 49.154 20.9202 45.794 17.6669C43.4473 15.3735 43.1806 14.9469 43.3406 13.1335C43.6073 10.1469 45.4206 8.97353 50.0073 8.9202C51.9806 8.86687 54.3806 9.02687 55.234 9.2402L56.834 9.61353L55.1273 8.86687C52.994 7.90687 48.194 7.42687 46.3806 8.01353Z" fill="white"/>
<path d="M46.0074 25.1332C45.5274 25.9865 44.7807 26.1999 42.754 26.1999C41.314 26.1999 39.9273 26.5199 39.6073 26.8399C39.1807 27.3732 39.714 27.5332 41.954 27.5332C44.1407 27.5332 45.0474 27.2665 45.954 26.4132C46.594 25.7732 47.0207 24.9732 46.914 24.6532C46.8074 24.3332 46.3807 24.5465 46.0074 25.1332Z" fill="white"/>
<path d="M32.3005 26.1998C31.8738 26.8931 32.5138 27.9064 33.1538 27.5331C33.7938 27.1064 33.7938 25.6664 33.1538 25.6664C32.8338 25.6664 32.4605 25.8798 32.3005 26.1998Z" fill="white"/>
<path d="M49.5272 26.6268C49.2605 27.9068 49.4205 32.6001 49.7939 32.6001C50.0072 32.6001 50.1672 31.3734 50.1672 29.8801C50.1672 27.4801 50.2739 27.2134 50.9672 27.8001C51.6605 28.3868 51.7139 28.3334 51.4472 27.6401C51.1272 26.7334 49.6872 25.9868 49.5272 26.6268Z" fill="white"/>
<path d="M33.7938 28.5467C31.2872 30.6267 30.1138 31.0534 28.6205 30.4667C27.0738 29.9334 26.7005 30.7867 27.8738 31.9601C29.2605 33.3467 32.5138 32.4401 34.3272 30.0934C35.0205 29.2401 35.8738 28.8667 37.2605 28.8667C39.0738 28.8667 39.1272 28.8134 38.1138 28.0667C36.6738 26.9467 35.5538 27.1067 33.7938 28.5467Z" fill="white"/>
<path d="M54.274 29.3998C52.6207 30.6798 52.4607 30.7331 52.1407 29.5064C51.9807 29.0264 51.874 29.3998 51.8207 30.4131L51.7673 32.2798L53.2607 30.8398C54.0607 30.0931 55.2873 29.2398 56.034 28.9198C56.834 28.5998 57.0473 28.3864 56.514 28.3864C56.034 28.3331 55.0207 28.8131 54.274 29.3998Z" fill="white"/>
<path d="M22.2205 33.1866C20.6205 35.0533 20.7805 37.0266 22.6471 38.68C23.6072 39.48 24.2472 39.5866 26.9672 39.2666C30.9138 38.7866 33.2072 38.7866 36.3005 39.2666C38.2738 39.5866 38.9138 39.4266 40.1405 38.52C40.8872 37.88 41.6872 36.7066 41.9005 35.8533C42.0605 34.9999 42.5938 33.9866 43.0205 33.6133C44.2472 32.5999 43.8738 31.9599 42.4872 32.8666C41.7938 33.3466 41.0472 34.3066 40.8872 34.9999C40.4072 36.9199 38.2738 38.0933 36.0338 37.7199C35.0205 37.5599 33.3138 37.2399 32.2472 37.0799C31.2338 36.8666 29.3138 37.0266 28.0338 37.3999C25.9538 37.9866 25.4738 37.9333 24.3005 37.1866C22.8605 36.2266 22.5405 34.3599 23.5005 32.5466C24.3538 31.0533 23.7672 31.3199 22.2205 33.1866Z" fill="white"/>
<path d="M60.0873 33.0267C59.5006 33.1333 57.8473 34.0933 56.4073 35.0533C53.6339 36.9733 52.8339 37.0267 50.1673 35.4267C49.0473 34.7867 49.1006 34.8933 50.4873 36.1733L52.0873 37.72L50.2739 41.1867C49.1539 43.32 48.9406 44.0133 49.6873 43C51.1806 40.9733 56.834 35.48 58.5406 34.36C59.234 33.88 60.514 33.5067 61.4206 33.56C62.274 33.56 62.9673 33.4 62.9673 33.1867C62.9673 32.8133 61.6873 32.7067 60.0873 33.0267Z" fill="white"/>
<path d="M59.3406 50.5198C59.0206 51.0531 58.7006 51.2664 58.7006 50.9998C58.7006 50.6798 58.4872 50.7864 58.2206 51.2131C57.2072 52.8131 60.3539 54.1998 61.7939 52.7598C62.5939 51.9598 62.5939 51.2664 61.8473 51.2664C61.4739 51.2664 60.9406 50.8931 60.5673 50.3598C59.9806 49.5598 59.8739 49.5598 59.3406 50.5198Z" fill="white"/>
<path d="M4.88723 53.5068C1.58056 55.2134 0.300556 57.1334 0.353889 60.2268C0.407223 65.9868 5.20723 68.7601 12.9939 67.4801L14.9672 67.1068V63.2134V59.2668H12.0339C9.1539 59.2668 9.10056 59.2668 9.10056 60.8668C9.10056 61.8268 9.36723 62.4134 9.74056 62.3601C10.0606 62.2534 10.4872 62.6268 10.5939 63.1068C10.7539 63.8534 10.4339 64.0668 9.1539 64.0668C5.74056 64.0668 4.08723 59.8001 6.43389 57.2401C7.76723 55.8534 9.52723 55.5868 12.9939 56.2801C14.2739 56.5468 14.4339 56.4401 14.4339 55.0001C14.4339 53.0801 14.0072 52.8134 10.2739 52.4934C7.82056 52.2801 6.80723 52.4934 4.88723 53.5068Z" fill="white"/>
<path d="M18.0072 52.7065C17.1538 52.9199 17.1005 53.6132 17.2072 60.2265L17.3672 67.5332H19.7672H22.1672L22.3272 60.1732C22.4338 54.5199 22.3272 52.8665 21.7938 52.8665C21.4205 52.8665 20.6205 52.7599 20.0338 52.6532C19.4472 52.5465 18.5405 52.5465 18.0072 52.7065Z" fill="white"/>
<path d="M25.3139 52.8131C25.2073 52.9198 25.1006 56.3865 25.1006 60.4398V67.7998H27.5006H29.9006V64.0665C29.9006 61.9865 30.0606 60.3331 30.2739 60.3331C30.4873 60.3331 32.2473 61.9865 34.2206 64.0131C37.4739 67.3731 37.9006 67.6398 39.8206 67.5865L41.9006 67.4798L42.0606 60.3331C42.1139 56.4398 42.0073 53.0798 41.7939 52.8665C41.5806 52.6531 40.3006 52.5998 39.0206 52.7598L36.6739 52.9731L36.9939 56.3865C37.1006 58.2531 37.1006 59.7998 36.8873 59.7998C36.6739 59.7998 35.0206 58.2531 33.1539 56.3865C30.3273 53.5598 29.4206 52.9198 27.6606 52.7598C26.5406 52.6531 25.4739 52.6531 25.3139 52.8131Z" fill="white"/>
<path d="M48.8339 52.6536C47.4472 52.9736 45.2072 54.8936 44.4072 56.4402C43.3406 58.4136 43.6072 62.8936 44.8872 64.7069C47.9806 69.0269 55.5006 68.7069 58.5406 64.1202C60.7806 60.8136 59.7139 55.8536 56.4072 53.6669C55.0739 52.8135 50.7539 52.2269 48.8339 52.6536ZM53.2072 57.0269C54.9139 58.0936 54.9139 62.0402 53.2072 63.1069C51.1806 64.3869 48.5672 62.5736 48.5672 59.9602C48.5672 57.6669 51.3939 55.8536 53.2072 57.0269Z" fill="white"/>
<path d="M63.0739 53.6667C61.7939 54.7333 61.3672 55.5333 61.3672 56.8667C61.3672 58.6267 62.4339 59.8533 66.2205 62.52L67.4472 63.3733L66.2739 64.0133C65.3672 64.4933 64.7272 64.44 63.2339 63.8533L61.3672 63.0533V64.8667C61.3672 67.0533 61.6872 67.2667 65.3672 67.64C68.7272 68.0133 70.6472 67.0533 71.5539 64.7067C72.3005 62.7333 71.0205 60.3867 68.4072 59C67.3405 58.4133 66.3805 57.5067 66.2739 56.92C66.1139 56.0667 66.3272 55.96 67.8739 56.1733C68.8339 56.3333 70.0605 56.6 70.5405 56.8667C71.3405 57.1867 71.5005 56.9733 71.3939 55.8533C71.2339 53.88 69.8472 52.8133 67.0739 52.4933C65.1539 52.28 64.5139 52.44 63.0739 53.6667Z" fill="white"/>
<path d="M1.52725 73.9867C1.26059 74.2 1.10059 77.6134 1.10059 81.6134V88.8667L3.76725 88.7067L6.43392 88.4934V85.88V83.2667H8.88726C11.8739 83.2667 13.1006 82.6267 14.1673 80.5467C15.2339 78.5734 14.5406 75.9067 12.7273 74.7867C11.3939 73.9867 2.16725 73.2934 1.52725 73.9867ZM9.84726 77.5067C10.6473 78.84 9.68726 80.28 7.82059 80.4934C6.54059 80.6534 6.43392 80.5467 6.43392 78.4667C6.43392 76.3867 6.54059 76.28 7.82059 76.44C8.62059 76.5467 9.52726 77.0267 9.84726 77.5067Z" fill="white"/>
<path d="M16.9405 73.9867C16.7271 74.2 16.5671 77.6134 16.5671 81.6134V88.8667L19.2338 88.7067L21.9538 88.4934L21.7938 81.24L21.6338 73.9334L19.5005 73.7734C18.2738 73.6667 17.1538 73.7734 16.9405 73.9867Z" fill="white"/>
<path d="M24.4073 73.9865C24.1939 74.1998 24.0339 75.0532 24.0339 75.8532C24.0339 77.3465 24.0339 77.3465 28.0339 77.5065L32.0873 77.6665L28.3539 83.0532C26.2739 86.0398 24.6739 88.5465 24.7806 88.6532C24.9406 88.7598 28.4073 88.8132 32.5673 88.7065L40.0873 88.5465L39.9273 87.1065C39.7673 85.7198 39.6073 85.6665 36.1406 85.3998L32.5673 85.1332L35.3939 80.8665C36.9939 78.5198 38.6473 75.9598 39.1806 75.1598L40.0873 73.7732L32.4606 73.7198C28.2473 73.6665 24.6206 73.7732 24.4073 73.9865Z" fill="white"/>
<path d="M41.7406 75.3734L41.9006 77.1334L45.5272 77.2934C47.5006 77.4001 49.1006 77.5601 49.1006 77.7201C49.1006 77.8801 47.7139 80.0668 46.0072 82.6268C44.3006 85.1868 42.7006 87.5868 42.4872 87.9068C42.1672 88.4401 43.7672 88.6001 49.5806 88.6001H57.1006V87.0001V85.4001H53.6339C51.7139 85.4001 50.1672 85.2934 50.1672 85.1334C50.1672 84.9734 51.6072 82.6801 53.3672 80.0134C55.1806 77.4001 56.7272 74.8934 56.8872 74.4668C57.1539 73.7734 56.0872 73.6668 49.3672 73.6668H41.5806L41.7406 75.3734Z" fill="white"/>
<path d="M64.7272 74.1468C64.4072 74.3068 63.5006 76.0135 62.7006 77.9335C61.9005 79.8535 60.7272 82.4668 60.0339 83.8002C59.3939 85.1335 58.6472 86.7335 58.4872 87.3735C58.1139 88.5468 58.2739 88.6002 60.5139 88.6002C62.4339 88.6002 62.9672 88.3868 63.2339 87.5335C63.5539 86.6268 64.0339 86.4668 67.2339 86.4668C70.3806 86.4668 70.9672 86.6268 71.2339 87.4802C71.4472 88.2802 72.1406 88.5468 74.1672 88.7068C75.8206 88.8135 76.7806 88.6535 76.6206 88.3335C75.0206 84.7068 70.2739 74.4135 70.0606 74.2002C69.7406 73.8268 65.3139 73.7202 64.7272 74.1468ZM68.5139 80.7602C68.9939 81.9868 69.3672 83.2135 69.3672 83.4268C69.3672 83.6402 68.4072 83.8002 67.2339 83.8002C66.0606 83.8002 65.1006 83.6402 65.1006 83.4268C65.1006 82.5735 66.8606 78.4668 67.2339 78.4668C67.4472 78.4668 68.0339 79.4802 68.5139 80.7602Z" fill="white"/>
</svg>
