<svg width="40" height="41" viewBox="0 0 40 41" fill="none" xmlns="http://www.w3.org/2000/svg">
<path d="M21.8688 33.4752C26.7896 30.2456 29.25 26.3561 29.25 21.8068C29.25 20.3915 29.0096 19.6838 28.5288 19.6838L28.0338 19.8209C27.6446 19.9746 27.3296 20.0515 27.0888 20.0515C25.6788 20.0515 24.5017 19.5262 23.5575 18.4756C22.6133 17.4249 22.1408 16.1283 22.14 14.5857C22.1408 13.1029 22.6513 11.8442 23.6713 10.8098C24.6913 9.7763 25.9213 9.25953 27.3613 9.25953C29.3713 9.25953 31.0296 10.1064 32.3363 11.8002C33.6396 13.4915 34.2913 15.6171 34.2913 18.177C34.2921 21.0727 33.7379 23.7219 32.6288 26.1246C31.5171 28.5265 29.8221 30.6983 27.5438 32.6398C25.2638 34.5796 23.8088 35.5499 23.1788 35.5508C22.7588 35.5508 22.4138 35.3432 22.1438 34.9281C21.8738 34.5138 21.7388 34.1529 21.7388 33.8454L21.8725 33.4764L21.8688 33.4752ZM5.66876 33.4752C10.5896 30.2464 13.0496 26.3565 13.0488 21.8055C13.0488 20.3902 12.8083 19.6825 12.3275 19.6825L11.8325 19.8196C11.4433 19.9733 11.1283 20.0502 10.8875 20.0502C9.50751 20.0502 8.33792 19.5249 7.37876 18.4743C6.41792 17.4254 5.93793 16.1287 5.93876 14.5844C5.93959 13.1016 6.45001 11.843 7.47001 10.8086C8.49001 9.77502 9.72001 9.25825 11.16 9.25825C13.17 9.25825 14.8283 10.1052 16.135 11.799C17.4383 13.4902 18.09 15.6158 18.09 18.1758C18.0917 21.1021 17.5292 23.774 16.4025 26.1912C15.2775 28.6094 13.5829 30.7734 11.3188 32.6833C9.05043 34.5941 7.60251 35.5495 6.97501 35.5495C6.55418 35.5495 6.20834 35.3419 5.93751 34.9268C5.66834 34.5117 5.53376 34.1504 5.53376 33.8429L5.66876 33.4752Z" fill="white"/>
</svg>
