<svg xmlns="http://www.w3.org/2000/svg" viewBox="0 0 572.13 172.1"><defs><style>.cls-1{fill:#363737;}.cls-2{fill:#52c3c5;}</style></defs><g id="Layer_2" data-name="Layer 2"><g id="Layer_1-2" data-name="Layer 1"><path class="cls-1" d="M144.22,25.28V59.05a5.61,5.61,0,0,1-5.61,5.61h-44V166.48A5.62,5.62,0,0,1,89,172.1H55.22a5.62,5.62,0,0,1-5.61-5.62V64.66h-44A5.61,5.61,0,0,1,0,59.05V25.28a5.62,5.62,0,0,1,5.61-5.62h133A5.62,5.62,0,0,1,144.22,25.28Z"/><rect class="cls-1" x="103.39" y="73.38" width="152.44" height="45" rx="5.61" transform="translate(275.49 -83.73) rotate(90)"/><path class="cls-1" d="M348.62,119.71H325.31a7.91,7.91,0,0,0-4.13,1.17l-42.15,26a7.52,7.52,0,0,1-9.34-1.16l-23.42-24a6.53,6.53,0,0,0-4.67-2H222.06a5.62,5.62,0,0,0-5.61,5.62v39.12a5.61,5.61,0,0,0,5.61,5.61H348.62a5.62,5.62,0,0,0,5.62-5.61V125.33A5.62,5.62,0,0,0,348.62,119.71Z"/><path class="cls-2" d="M281.91,77.13,406.63.52a3.48,3.48,0,0,1,5.3,3V52.73A10.33,10.33,0,0,1,407,61.52L279.86,140a6.83,6.83,0,0,1-8.49-1L215,81a15.59,15.59,0,0,1-4.4-10.85V21.89A3.75,3.75,0,0,1,217,19.23l57.63,57.05A6,6,0,0,0,281.91,77.13Z"/><path class="cls-1" d="M368.39,172.1H413V82.38a6.56,6.56,0,0,0-9.84-5.68L375.79,92.52a14.84,14.84,0,0,0-7.4,12.84Z"/><path class="cls-1" d="M572.13,25.28V59.05a5.61,5.61,0,0,1-5.61,5.61h-44V166.48a5.62,5.62,0,0,1-5.61,5.62H483.13a5.62,5.62,0,0,1-5.61-5.62V64.66h-44a5.61,5.61,0,0,1-5.61-5.61V25.28a5.62,5.62,0,0,1,5.61-5.62h133A5.62,5.62,0,0,1,572.13,25.28Z"/></g></g></svg>